<?xml version="1.0" standalone="no"?>
<!DOCTYPE svg PUBLIC "-//W3C//DTD SVG 20010904//EN"
 "http://www.w3.org/TR/2001/REC-SVG-20010904/DTD/svg10.dtd">
<svg version="1.0" xmlns="http://www.w3.org/2000/svg"
 width="237.000000pt" height="98.000000pt" viewBox="0 0 237.000000 98.000000"
 preserveAspectRatio="xMidYMid meet">
<metadata>
Created by potrace 1.10, written by Peter Selinger 2001-2011
</metadata>
<g transform="translate(0.000000,98.000000) scale(0.100000,-0.100000)"
fill="#000000" stroke="none">
<path d="M42 967 c38 -17 23 -42 -15 -28 -15 6 -27 7 -27 1 0 -5 10 -10 22
-12 13 -2 24 -11 26 -21 3 -15 -1 -17 -25 -12 -26 5 -26 5 -6 -6 12 -6 24 -20
26 -31 5 -17 2 -19 -21 -14 -25 6 -26 5 -8 -9 10 -8 23 -12 27 -9 5 3 9 -6 9
-20 0 -14 -4 -26 -10 -26 -5 0 -10 7 -10 15 0 35 -25 -9 -27 -46 -1 -34 2 -39
20 -38 18 1 19 2 4 6 -11 3 -16 10 -13 20 3 8 6 19 6 24 0 5 7 9 15 9 12 0 15
-13 15 -61 0 -61 0 -61 -26 -55 -17 5 -23 3 -19 -4 3 -5 15 -10 26 -10 15 0
19 -7 19 -30 0 -28 -2 -30 -27 -25 l-28 5 28 -12 c20 -9 27 -19 27 -40 0 -26
-3 -28 -27 -23 -28 5 -28 5 -3 -5 32 -14 32 -14 25 -43 -5 -19 -12 -24 -28
-21 -16 3 -15 1 6 -8 26 -11 27 -15 27 -81 0 -51 -3 -68 -12 -64 -13 4 -14 11
-5 82 2 22 2 32 0 23 -2 -10 -11 -18 -20 -18 -12 0 -13 -3 -4 -13 7 -9 8 -24
2 -44 -8 -28 -7 -32 15 -37 20 -5 24 -13 24 -41 0 -33 -1 -34 -25 -25 -14 5
-25 7 -25 5 0 -3 11 -10 25 -15 20 -8 25 -16 25 -45 0 -39 -2 -40 -33 -24 -21
10 -21 10 -3 -5 11 -9 23 -16 28 -16 4 0 8 -13 8 -29 0 -16 6 -31 13 -34 6 -2
9 -7 5 -11 -3 -4 -21 0 -38 9 -18 9 -30 12 -26 7 3 -5 19 -15 35 -22 21 -8 28
-17 24 -28 -4 -14 -3 -15 5 -3 9 12 15 13 37 3 14 -7 31 -12 38 -11 7 0 -5 7
-26 16 -20 8 -37 21 -37 28 0 11 50 13 262 12 l263 -2 6 -30 7 -30 1 33 c1 31
2 32 46 32 43 0 45 -1 45 -30 l0 -30 48 31 47 30 6 -33 6 -33 2 33 c1 31 2 32
46 32 53 0 58 -13 14 -35 -17 -9 -28 -19 -25 -22 3 -3 16 2 30 10 23 15 25 15
29 -1 3 -12 5 -11 6 6 0 12 7 22 14 22 9 0 9 2 -1 9 -9 5 5 9 37 9 l50 2 -6
-30 c-6 -34 -7 -34 54 -19 37 10 47 9 54 -2 7 -11 9 -10 9 4 0 11 8 17 24 17
13 0 37 3 54 6 26 5 31 3 35 -17 4 -24 4 -24 6 -1 0 13 8 22 19 23 15 0 14 2
-3 10 -15 7 -10 8 20 4 22 -2 48 -5 57 -5 10 0 18 -10 21 -27 4 -26 4 -26 6 5
1 32 1 32 52 32 51 0 51 0 47 -30 -3 -18 0 -30 6 -29 18 1 112 37 100 38 -6 1
-30 -6 -53 -14 -41 -14 -41 -14 -41 10 0 24 3 25 55 25 l55 0 0 -32 c0 -36 9
-34 12 3 2 23 7 25 55 27 50 2 53 1 53 -22 0 -13 -6 -27 -12 -29 -26 -11 18
-7 75 7 48 11 57 11 57 0 0 -8 4 -14 10 -14 5 0 7 7 4 15 -8 21 88 21 109 0 9
-9 17 -11 19 -5 2 7 14 7 35 -1 18 -6 38 -9 45 -6 7 2 -12 10 -44 17 -41 9
-55 17 -51 27 4 10 20 13 57 11 47 -3 51 -5 58 -33 l7 -30 -3 32 c-1 18 -2 33
-1 33 1 0 26 -13 56 -30 66 -36 71 -37 59 -4 -6 14 -10 27 -10 30 0 2 22 4 48
3 40 -2 48 -5 49 -22 1 -11 7 -25 13 -31 8 -8 9 -6 4 8 -7 17 -5 17 24 2 17
-9 35 -16 39 -16 4 1 -9 10 -29 21 -36 18 -50 39 -28 39 6 0 10 11 10 25 0 28
3 29 32 14 11 -6 22 -8 25 -5 4 3 -8 11 -25 17 -29 10 -32 15 -32 51 0 36 2
39 22 32 13 -4 26 -12 31 -18 4 -6 6 17 3 52 -2 35 -6 66 -10 69 -11 11 -6 63
6 63 7 0 5 5 -4 13 -9 6 -21 32 -27 57 l-10 45 5 -47 c3 -31 1 -48 -5 -48 -12
0 -15 78 -5 104 4 11 14 14 33 11 23 -5 22 -3 -6 10 -22 10 -33 22 -33 36 0
18 5 21 30 17 17 -3 30 -1 30 4 0 4 -13 8 -30 8 -30 0 -30 0 -30 56 l0 56 30
-4 c17 -3 30 -1 30 4 0 4 -13 8 -30 8 -25 0 -30 4 -30 25 0 20 5 25 24 25 15
0 26 -7 29 -17 3 -10 4 2 4 27 -1 25 -5 47 -8 50 -4 3 -9 15 -13 27 -5 16 -2
22 11 25 15 3 14 5 -6 10 -21 6 -23 4 -17 -23 4 -21 2 -29 -9 -29 -10 0 -14
13 -13 51 l0 50 30 -6 c21 -5 28 -4 24 4 -4 6 -15 11 -25 11 -10 0 -21 9 -24
20 -4 17 0 20 26 20 17 0 28 2 26 5 -3 2 -158 6 -344 8 -187 2 -332 2 -322 0
32 -8 17 -23 -22 -23 -29 0 -41 5 -44 18 -4 13 -5 13 -6 2 -1 -12 -10 -15 -38
-12 -21 3 -41 10 -45 16 -5 7 -8 7 -8 -3 0 -10 -10 -12 -42 -7 -24 3 -89 7
-146 9 l-102 2 0 -27 c0 -26 -3 -28 -44 -28 -34 0 -46 4 -49 18 -4 16 -5 16
-6 0 -1 -14 -10 -18 -41 -18 -27 0 -40 4 -40 14 0 16 43 26 117 26 32 0 52 4
48 10 -5 9 -80 6 -137 -6 -19 -4 -28 -1 -28 7 0 9 -4 8 -12 -3 -7 -8 -27 -18
-45 -21 -27 -5 -32 -3 -36 16 -4 19 -4 19 -6 -4 -1 -26 -21 -39 -63 -39 -32 0
-21 36 15 48 l32 11 -35 -6 c-19 -3 -51 -14 -70 -24 -38 -20 -36 -25 4 -9 20
7 26 6 26 -4 0 -11 -18 -14 -80 -14 -44 0 -80 1 -80 4 0 2 17 11 37 19 26 11
39 12 43 4 5 -6 9 -2 13 11 5 18 2 20 -16 14 -12 -4 -34 -13 -49 -20 -22 -12
-27 -11 -32 1 -3 8 0 15 6 15 6 0 9 3 6 6 -3 3 -23 -2 -43 -10 -46 -20 -45
-20 -45 0 0 11 -5 14 -16 10 -39 -15 -64 -18 -64 -7 0 7 -18 10 -52 7 -29 -3
-69 -5 -88 -6 -26 0 -31 -3 -20 -10 8 -5 25 -7 37 -3 14 3 23 1 23 -7 0 -7
-17 -11 -47 -10 -27 1 -57 1 -68 0 -17 -1 -17 -3 -4 -8 15 -6 15 -13 -4 -74
l-20 -67 -59 46 c-43 33 -59 40 -55 27 4 -10 10 -38 16 -61 l9 -43 -62 -1 -61
0 68 -25 c53 -20 71 -23 82 -14 19 16 58 3 51 -17 -3 -8 -6 -19 -6 -24 0 -11
-60 -12 -78 0 -8 4 -12 12 -11 17 2 5 -31 20 -74 34 -42 14 -77 31 -77 38 0 6
5 12 10 12 6 0 10 -4 10 -8 0 -7 119 -4 127 2 1 1 -4 26 -12 56 -8 29 -12 57
-9 61 2 4 -2 9 -11 11 -9 2 -11 8 -7 15 6 9 22 0 55 -32 26 -25 57 -49 67 -55
21 -11 28 -2 44 63 6 25 4 27 -26 28 -62 1 -111 8 -122 19 -18 18 2 22 57 10
30 -7 61 -10 68 -7 8 3 5 6 -8 6 -13 1 -23 6 -23 12 0 7 10 9 28 5 55 -13 72
-14 72 -3 0 8 -21 13 -55 14 -41 2 -55 -1 -55 -11 0 -12 -7 -12 -47 0 -54 16
-86 19 -64 5 8 -5 11 -16 6 -30 -5 -17 -14 -21 -51 -21 -33 0 -44 4 -44 16 0
13 8 15 43 10 l42 -5 -35 11 c-19 7 -37 14 -40 17 -3 3 -18 7 -35 8 l-30 3 27
-13z m503 -7 c-3 -5 -13 -10 -21 -10 -8 0 -14 -7 -14 -15 0 -8 5 -15 11 -15 5
0 7 5 4 10 -3 6 -1 10 5 10 7 0 10 -6 8 -12 -3 -7 -10 -13 -16 -12 -7 1 -24 2
-39 3 l-28 3 25 8 c17 5 19 8 8 9 -28 2 -21 19 10 24 49 7 53 7 47 -3z m74
-21 c-23 -14 5 -10 44 6 45 18 47 18 47 1 0 -20 -24 -26 -97 -24 -72 1 -85 19
-25 34 38 9 56 -1 31 -17z m1191 11 c0 -19 6 -20 98 -18 53 1 78 3 55 5 -59 6
-54 23 6 23 40 0 50 -3 54 -20 5 -19 0 -20 -144 -20 -93 0 -149 4 -149 10 0 6
15 11 33 12 l32 1 -32 4 c-47 6 -41 23 7 23 33 0 40 -3 40 -20z m78 10 c12 0
22 -4 22 -10 0 -5 -20 -10 -45 -10 -35 0 -45 4 -45 16 0 12 6 15 23 10 12 -3
32 -6 45 -6z m-538 -20 c0 -17 -7 -20 -45 -20 -38 0 -45 3 -45 20 0 17 7 20
45 20 38 0 45 -3 45 -20z m91 3 c0 -11 3 -13 6 -5 7 18 93 16 93 -3 0 -12 -17
-15 -90 -15 -83 0 -90 1 -90 20 0 17 7 20 40 20 31 0 40 -4 41 -17z m679 2 c0
-10 -11 -15 -35 -15 -19 0 -38 0 -42 -1 -5 0 -9 7 -11 15 -3 13 6 16 42 16 34
0 46 -4 46 -15z m83 -6 c5 -18 2 -20 -16 -15 -12 3 -30 6 -39 6 -10 0 -18 7
-18 15 0 10 10 15 34 15 26 0 35 -5 39 -21z m105 -2 c3 -16 -3 -18 -45 -15
-37 2 -49 7 -51 21 -3 16 3 18 45 15 37 -2 49 -7 51 -21z m-1248 -2 c0 -11
-11 -15 -42 -15 -47 0 -45 9 4 20 18 4 34 8 36 9 1 1 2 -6 2 -14z m554 9 c29
-11 16 -24 -24 -24 -29 0 -40 4 -40 15 0 16 35 20 64 9z m106 -14 c0 -5 -18
-10 -40 -10 -22 0 -40 5 -40 10 0 6 18 10 40 10 22 0 40 -4 40 -10z m-1302 -7
c-21 -2 -38 -6 -38 -8 0 -1 8 -22 19 -45 l19 -42 41 37 c23 21 44 35 47 33 7
-7 -45 -136 -58 -144 -13 -8 -2 28 23 79 11 20 17 37 14 37 -3 0 -21 -17 -40
-37 -25 -26 -36 -33 -39 -22 -21 55 -36 103 -36 110 0 5 19 8 43 7 l42 -1 -37
-4z m1722 -57 c0 -31 -3 -34 -35 -38 -22 -2 -40 1 -47 9 -8 10 -4 13 19 13 22
0 33 7 41 25 16 34 22 31 22 -9z m70 18 c0 -2 -12 -4 -27 -4 -21 0 -24 3 -14
9 13 8 41 5 41 -5z m-2052 -6 c6 -7 13 -30 17 -50 l7 -38 -50 0 c-47 0 -50 1
-56 31 -12 63 -9 69 33 69 21 0 43 -6 49 -12z m150 0 c-6 -18 -22 -20 -43 -3
-19 14 -18 14 13 15 22 0 32 -4 30 -12z m137 2 c-3 -5 -10 -10 -16 -10 -5 0
-9 5 -9 10 0 6 7 10 16 10 8 0 12 -4 9 -10z m1640 0 c-3 -5 -12 -10 -19 -10
-25 0 -37 -25 -22 -45 10 -14 11 -26 3 -51 -8 -28 -12 -31 -21 -18 -9 12 -29
14 -91 12 l-80 -3 -55 -77 c-30 -42 -55 -76 -57 -75 -1 2 -3 30 -4 63 -2 77
-17 94 -82 94 -79 0 -87 -13 -87 -137 l0 -103 -54 0 c-30 0 -58 5 -61 10 -4 6
6 10 22 10 38 0 53 16 53 58 0 56 -47 122 -106 147 -162 68 -333 -20 -334
-172 0 -24 -3 -43 -7 -43 -5 0 -16 26 -25 58 -29 99 -121 181 -204 182 -42 0
-92 -18 -131 -46 l-32 -24 -3 52 c-4 75 -25 69 -69 -20 l-36 -73 -26 35 c-18
23 -27 47 -27 71 0 22 -4 34 -10 30 -5 -3 -10 -16 -10 -28 0 -26 -16 -54 -26
-45 -5 6 3 34 38 131 l10 27 780 0 c517 0 777 -3 773 -10z m-1699 -87 c-2 -2
-15 -3 -28 -1 -24 3 -24 4 -10 38 l15 35 14 -34 c8 -18 12 -35 9 -38z m1844
55 c0 -10 2 -10 9 0 5 8 21 12 37 10 24 -2 17 -7 -44 -29 -53 -19 -72 -23 -68
-13 3 8 1 14 -4 14 -25 0 -6 19 23 23 17 2 35 5 40 5 4 1 7 -4 7 -10z m-1940
-69 c0 -8 -32 -29 -44 -29 -3 0 -6 16 -6 35 l0 35 25 -16 c14 -9 25 -20 25
-25z m1865 19 c4 -13 8 -25 9 -28 1 -3 5 -10 9 -17 10 -17 -3 -43 -22 -43 -36
0 -91 13 -91 21 0 5 26 9 58 9 l57 1 -29 23 -29 24 -36 -21 -36 -22 22 31 c12
17 20 34 16 38 -3 3 10 6 29 6 28 0 37 -5 43 -22z m129 -406 c0 -161 -3 -294
-6 -297 -7 -7 -2190 -6 -2197 1 -9 8 -14 467 -6 552 7 80 11 83 70 55 27 -13
34 -21 28 -32 -4 -9 -8 -46 -8 -82 0 -62 -2 -68 -25 -76 -22 -9 -19 -10 27
-14 48 -4 50 -3 41 15 -9 16 -7 18 7 13 9 -4 23 -7 31 -7 8 0 15 -10 15 -22 1
-17 2 -19 6 -5 5 19 14 20 62 11 25 -5 31 -12 32 -33 l2 -26 4 28 c4 25 8 27
49 27 44 0 44 0 44 -36 l0 -36 -54 6 c-57 8 -142 31 -160 44 -6 5 -38 6 -71 2
-66 -7 -61 -12 35 -33 l65 -15 -49 -1 c-83 -2 -106 -43 -67 -120 23 -44 81
-98 116 -107 13 -3 26 -13 28 -22 3 -13 6 -11 15 8 6 14 13 37 16 52 6 26 10
28 51 28 41 0 45 -2 45 -25 0 -23 -4 -25 -44 -25 -40 0 -45 -3 -55 -31 -9 -28
-9 -30 5 -18 8 7 40 14 70 16 42 3 56 0 60 -12 6 -15 34 -21 34 -7 0 4 23 35
50 67 29 34 56 79 63 103 l13 44 20 -44 c54 -122 170 -178 276 -134 66 28 147
142 148 209 0 27 1 27 63 25 53 -1 55 -2 17 -5 -56 -5 -70 -17 -70 -60 0 -68
59 -144 135 -173 45 -18 164 -15 210 4 84 36 125 98 125 191 0 30 5 55 10 55
6 0 10 -44 10 -113 0 -75 4 -117 12 -125 7 -7 37 -12 68 -12 70 0 88 16 88 80
1 86 1 87 16 67 17 -21 37 -49 76 -104 l30 -43 76 0 c41 0 84 5 94 10 13 7 21
7 25 0 10 -16 121 -12 134 4 13 15 17 477 6 540 -7 33 -5 34 37 48 l43 15 5
-66 c3 -36 5 -198 4 -359z m-1614 358 c-10 -52 -22 -70 -47 -70 -9 0 -8 10 4
35 9 19 21 35 25 35 5 0 7 3 5 8 -6 9 12 57 18 50 3 -3 1 -29 -5 -58z m1678
22 c3 -17 -2 -22 -17 -22 -16 0 -21 6 -21 26 0 33 33 30 38 -4z m-1918 -21
c39 -17 40 -19 16 -23 -19 -4 -26 -1 -26 11 0 12 -2 13 -8 3 -6 -8 -28 -12
-65 -11 -31 1 -54 6 -51 11 3 5 12 7 20 4 8 -3 14 -1 14 4 0 5 17 7 38 4 28
-3 32 -2 17 5 -38 18 3 11 45 -8z m436 -17 c-3 -9 -6 -19 -6 -23 0 -7 -71 -44
-75 -39 -8 10 -13 68 -6 63 5 -3 20 -1 33 4 37 16 61 13 54 -5z m79 -17 c17
-11 32 -22 34 -23 1 -2 0 -8 -4 -14 -6 -9 -10 -9 -16 1 -6 10 -9 10 -9 2 0 -7
-12 -19 -27 -28 l-28 -15 28 6 c25 6 27 4 27 -25 0 -18 -5 -31 -12 -31 -9 0
-10 -2 -2 -8 7 -4 14 -16 17 -27 4 -16 5 -14 6 7 1 20 8 29 33 37 24 9 34 8
40 -1 19 -31 7 -44 -75 -73 -45 -16 -85 -31 -89 -33 -5 -2 -8 3 -8 12 0 12 10
16 35 16 31 0 35 3 35 26 0 28 -36 94 -51 94 -5 0 -9 13 -9 28 0 21 7 31 28
39 l27 12 -27 -6 c-23 -4 -26 -2 -21 15 6 23 20 21 68 -11z m405 23 c0 -5 -18
-10 -40 -10 -22 0 -40 -3 -40 -8 0 -4 18 -6 40 -4 39 4 40 3 40 -27 0 -28 -3
-31 -33 -31 -18 0 -38 -5 -45 -12 -9 -9 -12 1 -12 45 l0 57 45 0 c25 0 45 -4
45 -10z m-100 -10 c0 -5 -12 -10 -27 -10 -22 0 -25 2 -13 10 20 13 40 13 40 0z
m170 -5 c31 -16 42 -55 16 -55 -7 0 -28 -3 -45 -6 -29 -6 -31 -5 -31 25 0 25
4 31 23 32 21 1 21 1 -3 9 -18 6 -20 8 -7 9 10 1 31 -6 47 -14z m230 -21 c0
-30 -3 -34 -25 -34 -22 0 -25 4 -25 34 0 29 3 34 25 34 22 0 25 -5 25 -34z
m60 -76 c1 -96 3 -110 14 -95 20 25 46 22 46 -7 0 -24 -21 -36 -67 -36 -18 0
-23 6 -23 24 0 13 6 27 13 29 7 3 5 6 -5 6 -11 1 -18 9 -18 22 0 12 8 28 18
36 15 13 15 14 1 10 -12 -4 -18 2 -22 19 -3 18 0 24 14 24 11 0 19 5 19 11 0
6 -9 9 -20 6 -17 -4 -20 0 -20 29 0 30 3 34 25 34 l25 0 0 -112z m251 90 l2
-23 4 23 c3 16 11 22 30 22 l25 0 -29 -30 c-24 -26 -35 -30 -80 -30 -46 0 -53
3 -53 20 0 17 7 20 48 22 l47 1 -45 7 -45 7 48 1 c42 2 47 0 48 -20z m-1560
-25 c1 -22 2 -23 6 -8 7 27 21 35 62 35 31 0 33 -2 26 -27 -4 -16 -9 -30 -11
-33 -6 -6 -165 -2 -171 4 -3 3 -3 17 1 31 5 21 12 25 46 25 37 0 40 -2 41 -27z
m369 -2 c0 -25 -6 -31 -36 -41 -19 -7 -33 -14 -31 -16 2 -3 17 0 32 6 34 13
38 10 29 -24 -4 -18 -18 -32 -41 -41 -44 -19 -41 -19 -46 8 -4 19 -4 18 -6 -5
0 -16 -5 -28 -11 -28 -13 0 -13 4 2 51 6 22 15 39 20 39 4 0 8 6 8 14 0 15 55
66 71 66 5 0 9 -13 9 -29z m-204 -58 c8 -30 -7 -43 -50 -43 -25 0 -28 3 -22
23 3 12 6 25 6 30 0 4 12 8 28 8 l27 2 -28 4 c-21 3 -27 9 -23 20 3 8 6 20 6
26 1 19 49 -41 56 -70z m684 40 c0 -21 -5 -45 -10 -53 -6 -10 -5 -22 4 -35 7
-11 10 -31 6 -45 -5 -21 -13 -26 -53 -30 l-47 -6 0 33 c0 32 1 33 43 35 l42 1
-42 4 c-40 4 -43 6 -43 34 0 28 2 29 45 29 25 0 45 3 45 8 0 11 -94 9 -102 -3
-4 -5 -10 -7 -13 -3 -3 3 6 20 20 37 22 25 34 31 66 31 38 0 39 -1 39 -37z
m600 22 c0 -8 -4 -15 -10 -15 -5 0 -7 7 -4 15 4 8 8 15 10 15 2 0 4 -7 4 -15z
m180 -80 l0 -95 -71 0 c-39 0 -69 4 -67 8 4 10 132 181 136 182 1 0 2 -43 2
-95z m37 63 c-3 -7 -5 -2 -5 12 0 14 2 19 5 13 2 -7 2 -19 0 -25z m103 0 c0
-16 -6 -19 -42 -16 -34 2 -44 7 -46 23 -2 18 2 20 43 17 37 -3 45 -8 45 -24z
m-690 1 c0 -5 -4 -9 -10 -9 -5 0 -10 7 -10 16 0 8 5 12 10 9 6 -3 10 -10 10
-16z m-620 -12 c0 -16 -6 -23 -22 -24 -13 -1 -34 -15 -47 -30 l-25 -28 7 25
c4 14 7 30 7 36 0 9 53 38 78 43 1 1 2 -9 2 -22z m-204 -12 c-4 -14 -9 -45
-13 -70 -3 -25 -9 -45 -14 -45 -4 0 -14 -3 -23 -6 -13 -5 -16 1 -16 25 0 24 6
34 25 41 30 11 33 20 5 13 -30 -8 -28 44 3 57 35 14 40 12 33 -15z m-367 -1
c2 -2 0 -15 -3 -30 -7 -25 -10 -26 -49 -20 -50 8 -49 8 -41 40 6 24 9 25 48
20 22 -4 43 -8 45 -10z m722 -5 c12 -23 6 -33 -28 -44 -20 -6 -23 -3 -23 23 0
46 30 59 51 21z m496 -32 l6 -37 -57 0 c-43 0 -56 3 -56 15 0 8 -9 24 -19 34
-19 19 -18 19 25 23 42 3 44 2 44 -24 0 -20 -6 -28 -22 -31 -13 -2 0 -4 27 -4
28 0 40 2 28 4 -18 3 -23 11 -23 33 0 28 18 44 33 30 4 -4 10 -23 14 -43z
m437 28 c-22 -34 -73 -36 -75 -2 l-2 22 -4 -22 c-4 -19 -11 -23 -39 -23 -35 0
-37 5 -11 38 6 7 35 12 78 12 l69 0 -16 -25z m-290 -1 c11 -28 7 -34 -24 -34
-25 0 -30 4 -30 25 0 20 5 25 24 25 13 0 27 -7 30 -16z m426 -9 c0 -14 -4 -25
-10 -25 -5 0 -10 11 -10 25 0 14 5 25 10 25 6 0 10 -11 10 -25z m-1763 -3
c-26 -29 -20 -51 18 -69 19 -9 35 -24 35 -32 1 -9 11 7 24 34 26 55 39 69 73
79 21 7 22 5 17 -26 -13 -80 -12 -78 -41 -67 -16 6 -30 6 -35 1 -6 -6 5 -12
26 -16 52 -10 44 -26 -13 -26 -79 0 -141 11 -141 26 0 7 5 36 11 64 7 34 16
50 26 50 14 0 14 -2 0 -18z m1853 -7 c0 -17 -5 -25 -17 -25 -38 0 -63 13 -63
31 0 15 7 19 40 19 36 0 40 -2 40 -25z m-1030 -25 c0 -16 -4 -30 -10 -30 -5 0
-10 14 -10 30 0 17 5 30 10 30 6 0 10 -13 10 -30z m-750 0 c-12 -23 -15 -24
-41 -9 -26 14 -15 29 22 29 27 0 29 -2 19 -20z m983 -10 c21 -35 19 -35 -60
-10 -57 18 -57 40 0 40 37 0 45 -4 60 -30z m-491 3 c23 -21 24 -53 1 -53 -41
0 -93 13 -93 23 0 18 32 47 53 47 11 0 29 -7 39 -17z m1028 8 c0 -5 -6 -14
-14 -20 -11 -10 -15 -8 -19 6 -3 11 -5 7 -6 -11 -2 -60 -91 -110 -91 -51 0 22
4 25 43 27 l42 1 -42 4 c-24 2 -43 9 -43 16 0 7 -4 6 -10 -3 -5 -8 -12 -12
-15 -8 -4 3 0 15 7 27 11 18 23 21 80 21 38 0 68 -4 68 -9z m-1633 -15 c1 0
-1 -14 -4 -30 -5 -26 -8 -28 -41 -22 -37 6 -52 19 -52 49 0 16 6 17 48 11 26
-3 48 -7 49 -8z m1383 -10 c0 -19 -6 -26 -27 -29 -26 -4 -26 -4 5 -6 27 -1 32
-5 32 -26 0 -27 -10 -31 -97 -38 -37 -3 -60 1 -75 12 -21 14 -22 14 -9 -2 12
-15 11 -17 -3 -17 -9 0 -16 8 -16 20 0 17 7 20 45 20 29 0 45 -4 46 -12 0 -10
2 -10 5 -1 3 7 12 9 20 6 11 -4 14 6 14 46 0 50 1 51 30 51 25 0 30 -4 30 -24z
m430 -1 c0 -16 -6 -25 -15 -25 -9 0 -15 9 -15 25 0 16 6 25 15 25 9 0 15 -9
15 -25z m80 -11 c0 -25 -9 -28 -47 -18 -15 4 -23 14 -23 28 0 19 4 21 35 18
29 -3 35 -8 35 -28z m-1590 7 c0 -10 -3 -32 -6 -49 -5 -23 -10 -29 -23 -25
-13 5 -13 3 3 -15 24 -27 18 -33 -39 -42 l-45 -7 0 34 c0 18 5 33 11 33 5 0 7
5 4 10 -8 13 1 13 26 0 13 -7 25 -8 37 -1 14 9 12 10 -13 11 -16 0 -37 5 -45
10 -11 7 -6 10 20 10 24 0 39 6 47 19 10 15 10 21 0 24 -7 3 -4 6 6 6 10 1 17
-6 17 -18z m182 -24 c-3 -29 -10 -35 -48 -50 -46 -17 -50 -14 -38 29 5 18 52
47 84 53 4 1 4 -14 2 -32z m378 -9 c0 -19 -2 -20 -10 -8 -13 19 -13 30 0 30 6
0 10 -10 10 -22z m173 11 c51 -14 47 -29 -8 -29 -38 0 -45 3 -45 20 0 23 2 23
53 9z m-650 -66 c-1 -32 1 -48 4 -35 2 12 6 22 7 22 2 0 20 7 40 15 l36 15 0
-30 c0 -27 -6 -33 -47 -51 -34 -15 -48 -17 -54 -8 -8 14 -11 108 -3 121 13 20
19 3 17 -49z m377 29 c0 -24 -6 -30 -50 -45 -28 -10 -55 -15 -60 -12 -5 3 -45
6 -89 6 -45 0 -81 2 -81 4 0 2 4 15 10 29 8 21 16 26 46 26 33 0 36 -2 32 -25
-3 -14 -4 -25 -2 -25 1 0 23 9 48 19 l45 20 4 -27 c4 -26 4 -25 6 4 1 26 7 33
34 42 51 16 57 14 57 -16z m340 19 c0 -5 18 -11 40 -15 l40 -6 0 -54 c0 -49
-2 -54 -25 -60 -28 -7 -75 18 -75 40 0 10 15 15 48 16 l47 2 -47 3 -48 4 0 40
c0 21 5 39 10 39 6 0 10 -4 10 -9z m720 -15 c0 -15 -7 -26 -17 -29 -14 -4 -12
-5 5 -6 17 -1 22 -7 22 -30 0 -25 -3 -28 -25 -23 -23 4 -25 9 -25 58 0 47 2
54 20 54 15 0 20 -7 20 -24z m70 -46 c0 -56 -1 -57 -25 -52 -34 6 -36 52 -2
53 21 1 21 1 -3 8 -17 5 -26 15 -28 32 -3 23 0 25 27 21 30 -4 31 -5 31 -62z
m-1544 25 c0 -30 -3 -35 -23 -35 -19 0 -23 5 -23 29 0 27 5 32 40 40 3 0 5
-15 6 -34z m499 16 c15 -6 10 -9 -24 -15 -46 -7 -57 -4 -46 13 7 12 41 13 70
2z m225 -32 l0 -31 -62 4 c-35 2 -78 11 -96 20 -18 9 -30 12 -27 7 4 -5 1 -9
-5 -9 -7 0 -10 6 -8 13 3 6 25 13 51 15 41 3 46 1 50 -20 4 -20 4 -20 6 5 1
25 4 27 46 27 44 0 45 -1 45 -31z m695 11 c-3 -6 -48 -10 -106 -10 -56 0 -98
4 -95 9 3 5 51 9 107 10 67 1 98 -2 94 -9z m-905 -9 c0 -12 -48 -23 -71 -16
-16 5 -19 1 -19 -22 0 -27 -5 -31 -62 -50 l-62 -20 2 -39 c3 -38 1 -40 -42
-62 l-46 -22 0 34 c0 29 5 35 40 51 21 10 39 20 38 24 -1 3 3 24 7 46 l9 40 7
-30 7 -30 1 28 c1 29 14 37 101 62 54 16 90 18 90 6z m640 -21 c0 -25 -4 -30
-25 -30 -13 0 -29 8 -34 18 -8 13 -10 5 -11 -35 0 -29 -4 -53 -10 -53 -5 0
-10 10 -10 23 0 12 -3 39 -6 59 l-6 37 43 4 c24 2 47 4 52 5 4 1 7 -11 7 -28z
m52 13 c26 -23 22 -33 -12 -33 -25 0 -30 4 -30 25 0 29 16 32 42 8z m-156 -49
c-1 -1 -18 -4 -38 -7 -36 -6 -38 -5 -38 23 0 25 4 29 33 32 27 3 33 -1 38 -22
3 -14 5 -25 5 -26z m-156 10 c15 -39 12 -86 -8 -124 -24 -43 -42 -50 -42 -16
0 20 5 26 23 27 l22 2 -22 4 c-18 3 -23 11 -23 34 0 25 4 29 28 30 l27 2 -27
4 c-23 4 -28 9 -28 34 0 38 36 41 50 3z m512 -55 c2 -44 1 -86 -2 -94 -3 -9
-29 16 -71 68 -92 115 -92 107 -5 107 l74 0 4 -81z m-1422 62 c0 -6 -5 -13
-11 -17 -6 -3 -9 -15 -6 -25 3 -12 0 -19 -9 -19 -18 0 -19 56 -1 63 19 8 27 8
27 -2z m-50 -35 c0 -31 -3 -34 -37 -41 -26 -5 -39 -3 -41 5 -3 7 -12 20 -22
30 -17 17 -16 18 38 28 32 5 58 10 60 11 1 0 2 -14 2 -33z m323 24 c28 0 18
-39 -16 -64 l-29 -21 -24 28 c-13 15 -24 34 -24 42 0 16 26 25 55 19 11 -2 28
-4 38 -4z m467 1 c0 -5 -9 -7 -20 -4 -11 3 -20 7 -20 9 0 2 9 4 20 4 11 0 20
-4 20 -9z m-953 -13 c15 -7 29 -13 31 -14 2 -1 -1 -12 -8 -23 -7 -14 -21 -21
-40 -21 -31 0 -34 7 -24 48 7 26 5 25 41 10z m371 -17 c8 -23 7 -31 -3 -35 -9
-3 -15 4 -18 22 -4 26 -4 26 -6 -3 -1 -24 -7 -33 -31 -42 -26 -10 -32 -9 -40
7 -16 31 -12 38 33 59 55 25 53 26 65 -8z m547 -1 c60 -15 72 -25 56 -44 -30
-36 -107 -13 -132 39 l-15 33 25 -9 c14 -4 44 -13 66 -19z m568 6 l16 -24 -49
-4 c-46 -3 -49 -2 -53 25 -3 25 -1 27 34 27 28 0 40 -6 52 -24z m-1558 4 c3
-5 2 -16 -2 -24 -6 -12 -10 -10 -20 10 -9 19 -8 24 2 24 8 0 17 -4 20 -10z
m1465 -27 c4 -26 8 -31 20 -23 8 5 36 10 61 10 39 0 48 -4 67 -30 22 -30 22
-30 2 -30 -14 0 -20 7 -21 23 -1 20 -1 21 -7 2 -6 -15 -17 -21 -52 -23 -43 -2
-47 0 -75 40 -49 69 -50 70 -23 66 17 -2 24 -11 28 -35z m308 31 c15 -4 22
-15 23 -33 l2 -26 4 28 c5 30 5 30 27 21 10 -4 16 -18 16 -36 0 -22 -4 -29
-14 -25 -8 3 -32 8 -53 11 l-38 6 32 -11 c28 -10 32 -17 39 -63 4 -28 9 -45
11 -38 6 17 20 15 27 -3 4 -12 -5 -15 -54 -15 l-60 0 0 95 c0 52 3 95 8 95 4
0 17 -3 30 -6z m-418 -28 c0 -23 -21 -36 -62 -36 -24 0 -24 47 0 53 45 12 62
7 62 -17z m-1440 4 c0 -6 -12 -8 -27 -5 l-28 5 28 -11 c19 -7 26 -16 23 -26
-3 -8 -6 -21 -6 -29 0 -8 -8 -14 -17 -15 -17 0 -17 -1 -1 -7 12 -5 14 -11 9
-21 -7 -11 -14 -4 -29 25 -10 21 -22 51 -26 67 -6 26 -5 27 34 27 22 0 40 -5
40 -10z m40 -8 c0 -10 11 -29 25 -42 20 -19 37 -24 80 -24 46 -1 55 -4 55 -18
0 -15 -9 -18 -50 -18 -41 0 -50 3 -50 18 0 13 -2 14 -9 3 -6 -9 -20 -11 -50
-6 -34 6 -41 11 -41 30 0 13 7 31 16 39 8 9 11 16 5 16 -6 0 -11 5 -11 10 0 6
7 10 15 10 8 0 15 -8 15 -18z m749 -14 c-5 -18 -9 -34 -9 -35 0 -3 -70 -33
-76 -33 -2 0 -4 14 -4 30 0 27 6 33 43 50 56 25 57 25 46 -12z m191 18 c0 -27
-76 -35 -83 -8 -3 9 -6 -5 -7 -33 l-2 -50 -13 30 c-8 17 -14 40 -15 53 0 20 4
22 60 22 44 0 60 -4 60 -14z m240 -26 c0 -24 -5 -31 -27 -36 -46 -10 -50 -14
-11 -11 33 3 37 0 41 -26 3 -26 -1 -31 -37 -48 -27 -12 -64 -19 -108 -19 l-68
0 0 35 c0 33 2 35 33 36 l32 2 -30 4 c-16 3 -33 10 -37 16 -5 8 -8 6 -8 -5 0
-11 -8 -18 -19 -18 -10 0 -33 -3 -50 -6 -30 -6 -31 -5 -31 28 0 34 2 36 42 41
30 4 45 2 52 -9 16 -21 103 -46 110 -31 2 7 6 -10 7 -38 2 -45 3 -46 6 -12 2
20 10 37 16 37 8 0 7 3 -2 9 -11 7 -9 10 8 16 11 3 24 17 27 30 5 21 17 29 47
34 4 0 7 -12 7 -29z m-874 -22 c-8 -42 -41 -76 -94 -99 -54 -24 -52 -24 -52 6
0 22 4 25 38 26 20 0 46 4 57 9 13 6 2 7 -32 3 -51 -5 -53 -5 -53 19 0 32 15
44 63 51 36 6 37 5 38 -26 1 -27 2 -28 6 -7 6 39 12 50 24 50 8 0 9 -11 5 -32z
m1758 -11 c-1 -22 3 -58 8 -80 10 -46 9 -48 -20 -40 -18 4 -22 13 -22 44 0 30
4 39 18 40 16 1 16 2 0 6 -13 3 -18 14 -18 38 0 26 4 33 18 32 13 -1 17 -9 16
-40z m-1537 13 l25 -20 -27 -10 c-14 -5 -35 -15 -46 -21 -18 -9 -19 -7 -13 18
13 62 20 66 61 33z m-410 -2 c-4 -14 -36 -12 -51 3 -6 5 3 9 23 9 22 0 31 -4
28 -12z m1283 -2 c0 -8 3 -21 6 -29 3 -10 -4 -17 -23 -21 -15 -4 -36 -9 -45
-12 -15 -4 -18 1 -18 30 0 32 3 35 33 39 17 2 35 5 40 5 4 1 7 -4 7 -12z m30
-48 c0 -34 -2 -59 -4 -57 -8 10 -14 119 -5 119 5 0 9 -28 9 -62z m-974 30 c-3
-13 -6 -29 -6 -37 0 -11 -5 -10 -20 4 -32 29 -24 47 24 54 4 0 6 -9 2 -21z
m1434 -19 c0 -34 -15 -38 -24 -6 -9 36 -7 47 9 41 9 -4 15 -19 15 -35z m-1342
-29 c-2 -22 -3 -40 -3 -40 0 0 22 11 50 24 36 18 52 21 57 13 5 -8 8 -7 8 4 0
15 48 45 56 36 8 -8 -52 -60 -83 -73 -18 -8 -47 -14 -65 -13 -40 0 -100 20
-105 34 -2 8 65 51 86 54 2 1 1 -17 -1 -39z m1168 -5 l23 -31 -73 -2 c-73 -2
-74 -2 -101 33 l-27 36 77 -3 c73 -3 79 -5 101 -33z m-1669 11 c1 -1 -1 -14
-5 -29 l-7 -26 -42 19 c-25 11 -43 26 -43 35 0 14 8 15 48 9 26 -3 48 -7 49
-8z m913 -21 c0 -29 -10 -31 -53 -8 -29 15 -30 17 -12 24 11 4 30 8 43 8 17 1
22 -5 22 -24z m450 0 c0 -23 -3 -25 -50 -25 -40 0 -48 3 -44 15 4 8 18 18 33
21 14 3 31 7 36 9 21 7 25 4 25 -20z m-1193 -55 c-6 -16 -13 -27 -15 -25 -7 7
8 55 17 55 5 0 4 -13 -2 -30z m282 -143 c-2 -2 -16 -11 -31 -20 -27 -17 -28
-17 -28 3 0 16 7 20 32 20 17 0 29 -1 27 -3z m341 -11 c0 -7 -14 -16 -32 -19
-18 -3 -40 -8 -49 -12 -13 -5 -15 -1 -12 19 5 23 10 26 49 26 31 0 44 -4 44
-14z m100 4 c-36 -12 -90 -12 -90 0 0 6 25 10 58 9 43 -1 51 -3 32 -9z m608
-2 c-2 -6 -28 -17 -56 -23 -51 -12 -52 -12 -52 11 0 22 4 24 56 24 39 0 54 -4
52 -12z m122 2 c0 -5 -25 -10 -55 -10 -30 0 -55 5 -55 10 0 6 25 10 55 10 30
0 55 -4 55 -10z m223 -9 c4 -18 3 -18 -32 -4 -49 20 -50 23 -9 23 27 0 37 -5
41 -19z"/>
<path d="M444 608 c5 -22 2 -27 -16 -31 -16 -3 -13 -5 10 -6 30 -1 33 1 27 22
-11 34 -29 48 -21 15z"/>
<path d="M2080 280 c8 -5 24 -9 35 -9 20 0 20 0 0 9 -11 5 -27 9 -35 9 -13 1
-13 0 0 -9z"/>
<path d="M1920 271 c0 -14 -8 -21 -27 -24 -26 -4 -26 -4 5 -6 28 -1 32 2 32
24 0 14 -2 25 -5 25 -3 0 -5 -9 -5 -19z"/>
<path d="M2333 623 c9 -2 23 -2 30 0 6 3 -1 5 -18 5 -16 0 -22 -2 -12 -5z"/>
<path d="M2348 433 c7 -3 16 -2 19 1 4 3 -2 6 -13 5 -11 0 -14 -3 -6 -6z"/>
<path d="M2 260 c0 -14 2 -19 5 -12 2 6 2 18 0 25 -3 6 -5 1 -5 -13z"/>
<path d="M182 25 c0 -17 2 -22 5 -12 2 9 2 23 0 30 -3 6 -5 -1 -5 -18z"/>
<path d="M264 42 c11 -5 23 -17 27 -28 6 -15 8 -15 8 -3 1 14 9 16 49 11 26
-3 50 -10 54 -16 5 -8 8 -7 8 2 0 17 96 17 103 -1 3 -6 5 1 5 18 0 17 -2 24
-5 18 -7 -18 -103 -18 -103 0 0 8 -3 8 -9 -2 -9 -14 -43 -13 -128 4 -21 4 -23
3 -9 -3z"/>
<path d="M545 40 c-13 -5 -14 -9 -5 -9 8 0 24 4 35 9 13 5 14 9 5 9 -8 0 -24
-4 -35 -9z"/>
</g>
</svg>
