<?xml version="1.0" standalone="no"?>
<!DOCTYPE svg PUBLIC "-//W3C//DTD SVG 20010904//EN"
 "http://www.w3.org/TR/2001/REC-SVG-20010904/DTD/svg10.dtd">
<svg version="1.0" xmlns="http://www.w3.org/2000/svg"
 width="711.000000pt" height="294.000000pt" viewBox="0 0 711.000000 294.000000"
 preserveAspectRatio="xMidYMid meet">
<metadata>
Created by potrace 1.10, written by Peter Selinger 2001-2011
</metadata>
<g transform="translate(0.000000,294.000000) scale(0.100000,-0.100000)"
fill="#000000" stroke="none">
<path d="M42 2923 c2 -13 15 -19 48 -21 26 -2 48 -10 53 -18 4 -8 17 -14 28
-14 11 0 22 -6 25 -13 3 -8 26 -13 65 -14 40 -2 68 -8 79 -18 12 -11 32 -15
59 -13 56 4 57 22 2 26 -25 2 -50 10 -55 17 -6 8 -31 15 -56 17 -41 3 -45 6
-54 36 -10 37 -22 41 -31 12 -4 -13 -15 -20 -31 -20 -17 0 -24 5 -24 20 0 18
-7 20 -56 20 -47 0 -55 -3 -52 -17z"/>
<path d="M446 2931 c-7 -11 13 -28 39 -33 17 -3 19 -10 17 -43 -2 -22 -10 -44
-18 -48 -8 -4 -14 -19 -14 -32 l0 -25 -116 0 c-126 0 -154 8 -154 45 0 13 -4
27 -10 30 -5 3 -10 0 -10 -7 0 -27 -24 -48 -48 -42 -12 4 -22 12 -22 19 0 7
-19 14 -46 18 -26 2 -50 11 -55 18 -6 10 -9 4 -9 -18 0 -33 0 -33 49 -33 42 0
53 -4 70 -26 24 -31 28 -89 7 -97 -20 -8 -59 4 -69 20 -10 17 -57 17 -57 0 0
-7 27 -21 60 -30 59 -18 60 -19 60 -56 0 -20 5 -42 11 -48 7 -7 9 -19 5 -28
-4 -12 -10 -13 -24 -6 -10 6 -29 7 -42 4 -15 -4 -26 -1 -32 11 -11 19 -38 22
-38 3 0 -7 16 -20 36 -27 20 -8 40 -23 46 -33 9 -18 10 -18 24 2 26 37 34 23
34 -58 0 -72 -2 -80 -21 -86 -29 -10 -44 9 -44 55 0 48 -18 54 -25 8 -4 -27
-9 -33 -28 -31 -14 2 -22 -3 -22 -12 0 -8 5 -15 10 -15 6 0 10 -25 10 -55 0
-30 -4 -55 -10 -55 -5 0 -10 -24 -10 -54 l0 -54 48 5 c78 9 77 23 -3 35 -26 4
-34 57 -11 70 10 6 16 22 16 43 0 28 4 36 24 41 14 3 34 3 45 -1 19 -6 20 -15
19 -185 l0 -180 -43 0 c-27 0 -45 5 -48 14 -3 7 -15 16 -26 19 -16 4 -21 0
-21 -13 0 -27 44 -50 95 -50 l45 0 0 -90 0 -90 -34 0 c-18 0 -39 7 -46 15 -7
8 -23 15 -36 15 -28 0 -34 -30 -6 -30 9 0 26 -7 36 -15 11 -8 35 -15 53 -15
l33 0 0 -90 c0 -89 0 -90 -24 -90 -37 0 -40 -17 -5 -25 30 -7 31 -8 25 -49 -4
-22 -9 -61 -12 -86 -4 -25 -11 -48 -18 -52 -19 -13 -34 -9 -41 12 -8 25 -65
29 -65 5 0 -10 10 -15 29 -15 16 0 34 -6 41 -14 6 -8 24 -16 38 -18 l27 -3 0
-210 0 -210 -29 3 c-19 2 -27 -1 -24 -10 3 -7 17 -14 31 -16 l27 -3 0 -104 c0
-86 -3 -104 -16 -109 -16 -6 -16 -8 0 -24 12 -15 16 -40 16 -115 0 -90 -1 -97
-20 -97 -26 0 -26 -16 1 -31 19 -10 21 -18 18 -92 l-4 -82 35 -5 c29 -4 35 -9
35 -30 0 -19 -6 -26 -24 -28 -15 -2 -28 3 -33 12 -5 9 -17 16 -27 16 -10 0
-24 6 -30 14 -7 8 -26 18 -42 21 -16 4 -29 11 -29 16 0 5 -4 9 -10 9 -17 0
-11 -36 8 -53 10 -10 28 -17 40 -17 12 0 22 -4 22 -10 0 -5 11 -10 25 -10 24
0 86 -35 93 -52 2 -5 16 -8 32 -8 16 0 35 -6 42 -13 7 -7 28 -19 47 -25 42
-15 125 -16 116 -2 -3 6 -15 10 -26 10 -11 0 -37 9 -57 19 -38 20 -74 35 -104
44 -18 6 -34 60 -23 77 8 12 367 7 438 -5 22 -4 43 -3 50 3 17 15 1036 16
1074 1 43 -16 45 -22 28 -131 -4 -24 -1 -28 21 -28 23 0 25 3 20 27 -3 16 -7
48 -8 72 -3 64 12 71 153 71 123 0 133 -4 124 -47 -2 -10 -7 -39 -10 -65 -6
-46 -7 -47 -34 -42 -16 4 -32 1 -35 -5 -5 -7 10 -11 48 -11 46 0 57 4 66 21 7
13 8 25 2 32 -13 16 -21 92 -12 106 5 9 44 11 141 9 l134 -4 -3 -55 c-2 -30
-5 -66 -8 -81 -5 -25 -3 -28 21 -28 20 0 25 4 21 18 -2 9 -6 46 -8 82 l-3 65
180 2 c118 1 188 -2 203 -9 17 -9 31 -9 55 0 20 7 115 11 250 11 240 1 242 0
217 -59 -12 -28 -16 -30 -70 -30 -39 0 -62 -5 -70 -15 -7 -8 -26 -15 -43 -15
-17 0 -38 -7 -48 -16 -12 -11 -27 -14 -43 -10 -22 5 -24 10 -20 44 l5 37 -20
-24 c-12 -13 -21 -36 -21 -52 0 -28 2 -29 49 -29 28 0 53 5 56 10 3 6 25 10
47 10 23 0 49 6 57 14 9 8 39 16 66 18 48 3 50 2 53 -24 5 -42 30 -35 34 10
l3 37 70 3 c145 5 152 24 12 32 -90 5 -92 6 -92 30 l0 25 173 3 c143 2 172 0
172 -12 0 -18 -22 -26 -71 -26 -26 0 -38 -4 -34 -11 4 -5 26 -9 48 -7 l42 3 3
-58 c2 -46 6 -57 20 -57 14 0 17 10 17 57 0 56 1 58 30 64 22 5 24 7 8 8 -34
2 -53 12 -53 28 0 13 12 14 73 9 253 -22 282 -23 290 -9 11 18 306 19 308 1 5
-49 -5 -126 -19 -140 -14 -17 -12 -18 31 -18 26 0 47 5 47 10 0 6 20 10 44 10
24 0 46 5 48 11 2 5 22 13 46 16 23 3 47 12 53 19 6 8 27 14 45 14 24 0 34 5
34 15 0 10 -10 15 -34 15 -19 0 -41 -7 -50 -15 -8 -8 -32 -15 -54 -15 -23 0
-45 -6 -52 -15 -7 -8 -25 -15 -40 -15 -15 0 -33 -7 -40 -15 -7 -9 -17 -12 -21
-8 -6 7 -14 97 -10 131 1 9 43 12 172 12 159 0 171 -1 164 -17 -9 -21 -9 -22
-7 -95 2 -44 6 -58 17 -58 12 0 15 13 15 55 0 41 4 57 15 62 13 5 13 8 -5 20
-11 8 -20 18 -20 24 0 13 57 11 66 -2 4 -7 22 -8 48 -4 22 4 82 9 132 11 105
6 103 8 95 -79 -5 -49 -10 -61 -31 -73 -23 -12 -21 -13 37 -14 34 0 65 5 68
10 3 6 33 10 65 10 37 0 60 4 62 12 3 7 30 15 63 18 34 3 60 10 63 18 6 18
-117 16 -142 -3 -11 -8 -39 -15 -62 -15 -30 0 -46 -5 -52 -17 -19 -33 -39 -7
-44 59 -3 35 -3 66 -1 71 2 4 78 7 169 7 181 0 188 -2 164 -59 -16 -40 3 -111
30 -111 23 0 24 4 8 29 -6 10 -8 26 -5 35 6 14 27 16 159 16 122 0 150 3 140
13 -9 8 -57 13 -155 14 -148 1 -169 8 -154 47 6 14 28 16 172 16 161 0 166 -1
174 -22 l8 -22 6 23 c5 22 7 22 179 21 95 -1 188 -7 205 -13 25 -8 36 -8 45 1
8 8 47 12 109 12 97 0 97 0 106 -27 l10 -28 7 28 7 28 152 -3 c127 -3 151 -6
148 -18 -8 -27 0 -124 11 -137 6 -7 19 -13 30 -13 19 0 19 1 4 25 -21 31 -20
51 1 59 14 6 14 9 -5 27 -12 11 -22 24 -22 29 0 14 22 25 50 25 24 0 25 2 25
75 l0 75 33 3 c23 2 32 -1 32 -11 0 -8 12 -18 26 -21 15 -4 33 -14 41 -21 24
-25 53 -19 53 10 0 15 -6 25 -14 25 -7 0 -27 7 -42 15 -16 8 -37 15 -46 15 -9
0 -20 5 -23 10 -3 6 -17 10 -30 10 -31 0 -35 15 -35 136 l0 104 35 0 c22 0 38
-6 41 -15 4 -9 19 -15 36 -15 23 0 31 -6 39 -30 6 -17 17 -30 25 -30 11 0 14
21 14 104 0 95 -2 104 -20 109 -17 4 -20 14 -20 57 0 43 3 53 20 57 26 7 26
33 0 33 -29 0 -47 46 -52 133 l-3 77 37 0 c27 0 38 4 38 15 0 10 -10 15 -33
15 -45 0 -67 26 -67 79 0 57 -23 50 -30 -10 -4 -39 -8 -44 -30 -44 l-25 0 1
140 c2 155 10 224 28 226 31 3 62 -4 71 -16 6 -7 28 -16 48 -20 35 -7 37 -6
37 19 0 23 -4 26 -34 26 -19 0 -38 5 -41 10 -4 6 -25 10 -46 8 -27 -1 -43 3
-49 13 -12 18 -23 89 -18 120 3 23 6 24 58 21 30 -2 65 -10 77 -18 34 -21 53
-18 53 11 0 20 -6 25 -36 31 -19 3 -58 4 -85 2 -39 -4 -52 -2 -59 11 -11 21
-10 303 1 316 8 11 129 4 162 -10 14 -6 17 -2 17 19 0 25 -1 25 -92 28 l-93 3
-3 65 c-3 88 1 93 79 83 l64 -8 5 -40 c3 -27 10 -41 23 -43 15 -3 17 5 17 62
0 76 3 74 -108 55 -78 -14 -82 -10 -82 76 0 65 11 85 45 85 39 0 73 -40 77
-89 4 -65 28 -66 28 -2 0 44 3 51 20 51 11 0 20 7 20 15 0 9 -9 15 -25 15 -27
0 -45 25 -45 64 0 16 -6 26 -15 26 -10 0 -15 -10 -15 -30 0 -24 -5 -31 -27
-36 -52 -13 -58 0 -60 147 0 74 3 139 8 145 13 16 68 15 100 -2 41 -21 79 -18
79 5 0 22 -68 45 -121 39 -32 -3 -34 -1 -37 32 -2 19 -10 40 -19 47 -9 7 -13
19 -9 29 6 15 17 16 96 11 85 -6 90 -6 90 13 0 19 -7 20 -91 20 -82 0 -91 2
-96 20 -3 11 -11 20 -18 20 -7 0 -15 -9 -18 -20 -5 -19 -14 -20 -147 -20 -133
0 -142 1 -147 20 -3 11 -11 20 -18 20 -7 0 -15 -9 -18 -20 -5 -18 -14 -20
-102 -20 -88 0 -97 2 -102 20 -7 26 -29 26 -36 0 -5 -19 -14 -20 -132 -20
-118 0 -127 1 -132 20 -3 11 -11 20 -18 20 -7 0 -15 -9 -18 -20 -5 -18 -14
-20 -100 -20 -52 0 -115 -3 -140 -6 -43 -6 -46 -5 -53 20 -8 34 -27 33 -41 -3
-9 -26 -8 -30 14 -40 19 -9 24 -18 21 -39 -3 -26 -5 -27 -58 -25 -30 1 -84 -1
-120 -5 -58 -6 -51 -7 70 -12 74 -3 173 -3 220 1 81 6 67 12 -30 13 -42 1 -45
3 -48 30 -2 16 0 32 5 36 4 5 71 5 148 2 l140 -7 5 -38 c7 -50 24 -48 28 3 l3
40 112 0 c144 0 154 -3 159 -46 2 -19 1 -39 -2 -44 -9 -14 -209 -21 -724 -26
-296 -3 -443 -1 -452 7 -8 7 -14 7 -19 -1 -4 -6 -53 -10 -126 -10 -102 0 -121
2 -126 16 -3 9 -2 23 3 32 14 21 233 20 249 -2 10 -12 13 -12 23 5 9 14 25 19
60 21 l47 1 -50 6 c-48 6 -50 8 -53 39 l-3 32 121 0 122 0 -3 -52 c-4 -59 6
-85 25 -69 9 7 11 29 8 66 l-4 55 41 0 c23 0 51 -5 62 -11 11 -5 41 -9 67 -7
46 4 43 11 -10 22 -16 4 -28 13 -28 21 0 13 -33 15 -242 13 -155 -2 -242 -7
-241 -13 1 -5 12 -12 25 -15 17 -4 24 -14 26 -38 l3 -33 -118 3 -118 3 -3 48
c-2 30 -8 47 -16 47 -18 0 -29 -101 -15 -134 23 -50 11 -56 -120 -56 -68 0
-122 4 -126 10 -3 5 -3 25 1 45 l6 35 100 0 c75 0 99 3 96 13 -3 8 -36 14 -99
17 l-94 5 -3 33 c-2 24 -8 32 -23 32 -15 0 -19 -6 -17 -32 l3 -33 -120 4
c-123 3 -145 10 -145 42 0 11 -7 19 -15 19 -8 0 -15 -9 -15 -20 0 -19 -7 -20
-116 -20 -107 0 -116 1 -121 20 -3 11 -11 20 -18 20 -7 0 -15 -9 -18 -20 -5
-19 -14 -20 -131 -20 -119 0 -126 1 -126 20 0 15 -7 20 -26 20 l-26 0 7 -67
c4 -38 8 -79 9 -93 l1 -25 -275 0 c-258 0 -275 1 -278 18 -2 10 -1 29 2 43 5
20 12 24 47 24 22 0 51 7 64 16 18 12 45 15 112 13 124 -4 283 11 283 26 0 7
-7 16 -16 19 -8 3 -12 10 -9 16 4 6 -11 10 -39 10 -34 0 -46 -4 -46 -15 0 -19
-67 -31 -92 -16 -13 8 -24 8 -38 1 -10 -5 -49 -10 -87 -10 -46 0 -76 -5 -91
-16 -12 -8 -35 -14 -50 -12 -22 2 -28 8 -30 36 -4 40 -32 45 -32 5 -1 -49 -30
-72 -96 -75 -69 -4 -75 -22 -8 -26 34 -2 52 2 66 15 19 17 20 17 34 -2 8 -11
14 -31 12 -45 -3 -25 -4 -25 -117 -28 -63 -1 -121 0 -129 3 -22 8 5 35 35 35
14 0 22 4 18 10 -4 6 -12 10 -18 9 -38 -5 -40 0 -34 66 6 60 5 65 -13 65 -18
0 -20 -7 -20 -84 l0 -84 -42 -7 c-24 -4 -79 -7 -123 -8 l-80 -2 3 45 c5 55 16
70 52 70 15 0 30 6 33 14 4 9 23 16 49 18 31 2 44 8 46 21 3 14 -4 17 -46 17
-41 0 -51 -3 -55 -20 -7 -26 -42 -26 -60 1 -14 20 -15 20 -28 -11 -9 -21 -23
-33 -41 -37 -15 -3 -29 -11 -32 -19 -3 -8 -19 -14 -36 -14 -20 0 -30 -5 -30
-15 0 -10 10 -15 29 -15 16 0 34 7 41 15 30 36 69 2 58 -52 -3 -16 -15 -18
-99 -21 -77 -2 -99 0 -109 13 -16 19 -44 19 -60 0 -10 -12 -37 -15 -121 -15
-109 0 -127 6 -89 33 19 13 19 13 0 30 -11 9 -17 23 -14 31 3 8 1 17 -5 21
-18 11 -12 23 12 27 14 2 23 11 25 26 3 19 -1 22 -32 22 -29 0 -36 -4 -36 -20
0 -16 -7 -20 -34 -20 -18 0 -39 -7 -46 -15 -7 -8 -23 -15 -35 -15 -13 0 -25
-7 -29 -15 -3 -8 -17 -15 -32 -15 -26 0 -26 1 -20 50 l7 50 -46 0 c-38 0 -45
-3 -45 -20 0 -16 -7 -20 -34 -20 -18 0 -39 -7 -46 -15 -7 -9 -29 -15 -52 -15
l-39 0 7 35 6 35 -71 0 c-64 0 -71 -2 -71 -20 0 -18 -7 -20 -59 -20 -49 0 -62
4 -74 20 -14 20 -15 20 -20 1 -4 -16 -17 -20 -91 -26 -47 -4 -86 -11 -86 -15
0 -14 48 -20 104 -14 49 6 55 4 66 -15 9 -17 9 -26 -2 -38 -11 -13 -30 -15
-127 -9 -62 3 -117 8 -121 11 -5 3 -2 18 6 33 11 23 11 35 2 60 -14 35 -25 41
-30 15 -2 -12 -14 -18 -35 -19 -55 -3 -65 -10 -51 -39 6 -14 17 -25 25 -25 22
0 15 -19 -14 -33 l-27 -15 32 -7 c40 -8 48 -21 28 -44 -9 -10 -16 -35 -16 -58
0 -22 -7 -54 -15 -69 -8 -16 -15 -36 -15 -45 0 -9 -7 -30 -15 -45 -8 -16 -15
-37 -15 -46 0 -9 -4 -20 -10 -23 -5 -3 -10 -18 -10 -33 -1 -61 -38 -65 -94
-11 -17 16 -35 29 -40 29 -6 0 -35 23 -64 50 -29 28 -56 50 -60 50 -4 0 -29
20 -55 45 -26 25 -47 42 -48 38 -3 -22 4 -56 17 -81 7 -15 14 -38 14 -53 0
-14 5 -30 12 -37 7 -7 15 -36 19 -64 3 -29 10 -67 14 -84 10 -43 -2 -46 -173
-46 -75 -1 -128 -3 -117 -6 11 -2 27 -9 35 -16 8 -6 42 -20 75 -31 69 -21 124
-51 143 -77 20 -27 51 -22 117 22 17 11 37 22 45 26 8 3 26 12 40 20 56 33 92
46 103 35 17 -17 27 -13 37 15 8 21 15 25 33 19 45 -14 157 -18 172 -5 32 26
50 -14 36 -80 -1 -7 -259 -2 -270 5 -5 3 -21 0 -36 -7 -21 -10 -23 -13 -10
-20 19 -11 20 -42 1 -58 -8 -6 -16 -32 -18 -58 l-3 -46 -104 3 c-80 2 -102 0
-99 -10 7 -20 58 -30 112 -23 56 7 66 -1 66 -57 0 -53 13 -57 25 -7 9 33 16
44 34 46 53 8 94 -20 53 -36 -10 -4 -33 -19 -50 -34 -29 -24 -32 -32 -32 -80
0 -56 5 -64 61 -100 15 -9 53 -26 85 -37 32 -12 61 -24 65 -28 4 -5 5 -29 2
-55 -5 -41 -9 -48 -33 -53 -15 -3 -49 2 -76 11 -27 9 -67 16 -89 16 -82 0 -81
-1 -75 77 3 39 11 76 18 83 14 14 15 73 2 103 -8 19 -9 19 -16 -4 -7 -23 -10
-23 -76 -18 -39 3 -76 11 -84 17 -7 7 -33 11 -56 10 -24 -2 -49 -2 -55 -1 -18
2 -17 75 1 90 7 6 16 29 20 51 5 31 11 41 31 46 20 5 23 9 15 24 -7 14 -5 21
13 33 32 21 9 43 -52 50 -27 3 -58 10 -68 15 -10 5 -33 16 -51 25 -19 9 -40
17 -48 17 -8 0 -31 9 -51 20 -21 11 -45 20 -53 20 -9 0 -21 5 -28 12 -6 6 -31
11 -56 11 -56 -1 -70 13 -58 59 10 40 46 52 55 17 5 -19 10 -20 39 -14 18 4
102 9 186 12 151 5 152 5 152 28 0 13 -4 26 -9 30 -6 3 -13 27 -17 53 -4 26
-13 56 -20 67 -6 11 -12 40 -12 64 -1 24 -6 49 -11 54 -6 6 -11 24 -11 39 0
21 -7 32 -25 40 -30 13 -30 17 -8 55 15 27 18 28 50 19 18 -6 33 -17 33 -25 0
-24 43 -80 70 -91 46 -20 80 -41 80 -51 0 -5 6 -9 14 -9 8 0 34 -20 58 -45 24
-24 47 -45 52 -45 6 0 20 -9 32 -21 l22 -20 16 47 c9 26 16 55 16 65 0 9 7 22
15 29 8 7 15 23 15 35 0 12 9 34 20 48 11 14 21 36 22 49 3 23 2 23 -101 26
-58 1 -110 7 -117 13 -8 7 -14 6 -19 -1 -5 -8 -22 -10 -49 -6 -22 3 -66 9 -96
12 -68 8 -100 34 -100 80 l0 33 58 -6 c31 -3 64 -12 73 -19 22 -20 109 -19
109 1 0 11 -12 15 -44 15 -26 0 -48 6 -56 15 -8 9 -30 15 -57 15 -36 0 -46 4
-50 20 -5 17 -14 20 -59 20 -29 0 -55 -4 -58 -9z m1194 -41 c13 -9 11 -13 -9
-29 -14 -11 -42 -22 -63 -25 -36 -6 -48 -18 -29 -30 5 -4 20 -2 34 3 16 6 28
6 36 -2 17 -17 13 -47 -6 -54 -10 -4 -22 -12 -28 -18 -20 -23 -47 -26 -52 -6
-4 17 -16 20 -86 23 -45 2 -131 1 -192 -2 -129 -6 -132 -9 -80 -88 19 -30 33
-57 31 -61 -3 -4 4 -20 15 -37 10 -16 19 -39 19 -51 0 -13 3 -23 7 -23 10 0
65 45 129 104 77 74 130 110 149 102 20 -7 19 -34 -5 -79 -11 -20 -20 -44 -20
-52 0 -15 -3 -23 -33 -83 -9 -19 -17 -42 -17 -52 0 -10 -4 -21 -9 -24 -11 -7
-51 -88 -51 -104 0 -6 -11 -23 -25 -38 -14 -15 -25 -31 -25 -36 0 -5 11 -13
25 -18 45 -17 24 -40 -36 -40 -16 0 -29 -5 -29 -10 0 -7 32 -8 93 -4 78 6 94
4 106 -9 16 -20 6 -93 -14 -101 -8 -3 -15 -20 -17 -38 -3 -32 -5 -33 -56 -39
-29 -4 -59 -12 -67 -19 -17 -14 -118 -8 -138 8 -7 6 -60 9 -119 7 -59 -2 -120
0 -135 4 -25 7 -27 11 -24 52 1 24 9 55 16 69 7 14 16 33 19 43 5 15 20 17
123 17 l118 0 -3 -76 c-4 -61 -2 -76 9 -72 9 3 15 23 17 54 2 36 9 53 25 66
20 15 21 20 10 48 -17 44 -2 79 30 73 19 -4 25 0 30 19 8 37 45 139 66 183 11
22 27 58 36 80 10 22 24 45 32 52 9 7 11 13 4 18 -11 6 -24 -5 -94 -83 -21
-23 -44 -42 -52 -42 -8 0 -15 -6 -15 -14 0 -8 -12 -29 -27 -46 l-26 -32 -22
24 c-12 13 -25 40 -29 60 -3 20 -13 41 -21 48 -8 7 -15 25 -15 40 0 15 -7 33
-15 40 -8 7 -15 27 -15 44 0 18 -4 36 -9 41 -5 6 -11 30 -13 55 l-3 45 55 7
c87 10 188 9 195 -2 4 -7 12 -7 25 0 10 5 38 11 62 12 35 1 37 2 11 5 -39 5
-54 22 -46 51 5 19 12 22 59 22 34 0 58 5 66 15 15 16 95 20 118 5z m240 -31
c0 -28 -6 -46 -17 -55 -17 -12 -16 -13 7 -22 20 -8 27 -6 34 9 5 10 19 19 31
19 13 0 28 7 35 15 7 8 25 15 40 15 15 0 33 7 40 15 7 8 28 15 47 15 32 0 35
-2 29 -22 -3 -13 -6 -35 -6 -50 0 -24 -4 -28 -29 -28 -17 0 -33 -5 -36 -11 -5
-6 -47 -8 -123 -5 -152 8 -166 8 -234 0 -67 -7 -79 5 -58 56 11 27 17 30 60
30 30 0 52 6 60 15 7 8 26 15 42 15 16 0 31 6 34 15 4 8 15 15 25 15 16 0 19
-7 19 -41z m2152 3 c3 -4 8 -29 10 -57 l3 -50 -134 -3 c-94 -2 -137 1 -142 9
-6 10 -3 76 6 104 3 11 245 8 257 -3z m283 -31 l11 -33 11 25 12 25 128 -5
c70 -3 130 -7 132 -9 2 -2 4 -20 5 -41 l1 -38 -275 0 -275 0 4 50 c1 28 5 54
8 58 2 4 54 6 115 5 l111 -3 12 -34z m2275 4 c7 -38 23 -38 30 1 l5 29 124 3
c121 3 123 2 147 -23 28 -30 32 -80 8 -89 -31 -12 -239 -7 -252 6 -9 9 -17 10
-30 2 -11 -7 -39 -8 -77 -3 -33 4 -84 8 -112 8 -54 1 -57 4 -54 48 1 11 -3 24
-9 28 -26 16 19 25 115 23 l100 -3 5 -30z m-177 -261 l2 -89 -50 -3 c-70 -3
-118 -12 -110 -20 3 -4 48 -9 98 -12 l92 -5 3 -40 c2 -23 12 -49 24 -62 12
-13 19 -30 15 -42 -3 -13 4 -28 19 -42 25 -23 33 -72 14 -84 -5 -3 -10 -14
-10 -23 0 -38 -11 -41 -115 -30 -234 24 -220 21 -223 47 -6 41 9 45 175 46
116 0 157 3 160 12 3 7 -4 16 -14 20 -10 3 -31 17 -46 30 -16 13 -33 23 -38
23 -5 0 -23 10 -39 22 l-30 22 -49 -24 c-28 -12 -52 -29 -55 -36 -3 -8 -14
-14 -23 -14 -10 0 -28 -7 -40 -15 -35 -25 -37 1 -3 35 16 16 30 38 30 50 0 11
4 20 8 20 5 0 14 12 21 26 10 22 9 31 -4 50 -8 13 -20 24 -24 24 -19 0 -71 53
-71 72 0 19 4 19 75 13 65 -6 79 -5 95 10 11 10 20 24 20 30 0 7 7 18 15 25 8
7 15 20 15 30 0 19 40 42 53 30 5 -4 9 -47 10 -96z m-255 53 c9 -6 3 -19 -23
-50 -39 -45 -42 -67 -19 -123 18 -44 12 -124 -12 -162 l-15 -22 -52 27 c-49
26 -60 28 -217 31 -104 2 -178 0 -202 -8 -51 -15 -151 -110 -237 -224 -75 -99
-117 -143 -128 -132 -4 3 -10 48 -13 99 -9 115 -16 133 -83 202 -60 62 -48 59
-237 55 -123 -2 -141 -10 -200 -80 -48 -58 -62 -103 -59 -199 2 -69 -7 -131
-20 -131 -13 0 -36 31 -69 90 -78 138 -185 235 -322 289 -243 95 -524 80 -730
-40 -121 -70 -226 -199 -275 -338 -25 -72 -33 -76 -66 -35 -16 20 -29 41 -29
47 0 6 -15 33 -32 61 -125 194 -294 325 -462 356 -151 28 -299 -2 -475 -97
-111 -59 -115 -57 -116 67 -2 95 -9 122 -21 74 -4 -16 -13 -38 -20 -49 -8 -11
-14 -40 -15 -65 0 -25 -10 -83 -22 -130 -21 -81 -23 -85 -52 -89 l-30 -4 30
-6 c34 -7 36 -23 17 -101 -7 -25 -14 -57 -17 -72 -4 -20 -12 -28 -28 -29 -15
0 -17 -2 -7 -6 25 -10 29 -25 14 -54 -8 -16 -14 -56 -14 -94 0 -65 0 -65 -29
-65 -15 0 -40 -9 -55 -21 -14 -11 -34 -19 -43 -17 -15 3 -17 14 -15 83 4 99
17 123 72 127 53 4 56 22 5 26 -22 2 -42 8 -46 13 -14 23 1 131 22 160 11 16
18 36 16 44 -3 7 1 19 9 25 8 7 14 18 14 24 0 6 14 38 30 71 16 33 30 65 30
72 0 6 9 15 20 18 17 5 18 10 9 27 -8 15 -7 24 5 37 9 10 16 29 16 43 0 14 7
31 15 38 17 14 20 40 6 40 -5 0 -22 -15 -38 -34 -33 -41 -153 -238 -153 -252
0 -16 -39 -54 -56 -54 -8 0 -39 25 -69 56 -53 55 -71 89 -96 187 -6 26 -17 46
-23 44 -6 -2 -14 -31 -18 -63 -10 -96 -71 -173 -92 -117 -8 19 24 133 37 133
4 0 7 14 7 32 0 19 9 41 22 55 13 14 23 38 24 57 1 43 47 122 84 145 27 16
157 17 2282 17 1239 -1 2259 -5 2266 -9z m-5692 -41 c24 -28 35 -53 43 -100
18 -102 19 -100 -47 -114 -32 -7 -82 -12 -111 -12 -44 0 -56 4 -77 27 -32 34
-37 58 -32 142 5 97 14 104 112 99 78 -5 81 -6 112 -42z m6398 -19 c17 -13 16
-15 -20 -36 -21 -13 -53 -25 -72 -28 -18 -3 -35 -10 -38 -14 -3 -5 -15 -9 -28
-9 -12 0 -31 -7 -42 -15 -10 -8 -29 -15 -42 -15 -12 0 -49 -11 -82 -24 -54
-22 -61 -23 -69 -8 -5 10 -6 23 -1 33 7 12 3 19 -15 27 -27 12 -33 43 -12 59
13 11 101 22 242 29 49 3 92 7 94 10 10 9 68 3 85 -9z m-5762 -64 c19 -22 41
-89 34 -102 -8 -12 -70 -23 -90 -15 -36 14 -5 133 35 134 3 0 13 -8 21 -17z
m-315 -107 c41 -38 46 -47 37 -63 -13 -22 -52 -43 -68 -37 -25 10 -47 63 -42
101 6 47 4 43 15 43 5 0 31 -20 58 -44z m6008 4 c16 -18 17 -77 18 -1037 1
-1084 2 -1054 -47 -1073 -20 -7 -1165 -10 -3061 -8 -242 0 -741 0 -1110 -1
-368 -1 -773 0 -900 1 -126 1 -336 1 -465 0 -384 -2 -615 -1 -785 3 -149 4
-161 6 -178 26 -15 19 -17 55 -19 378 -2 196 -1 595 1 886 4 588 3 583 63 571
17 -3 60 -21 97 -38 59 -30 66 -36 69 -66 2 -18 -6 -58 -18 -90 -12 -31 -26
-95 -31 -143 -8 -79 -5 -110 18 -221 4 -21 -1 -33 -23 -53 -15 -14 -25 -27
-23 -30 3 -2 43 -7 89 -10 47 -4 98 -11 114 -16 16 -5 31 -7 34 -5 6 6 -30 66
-40 66 -17 0 -8 49 10 53 11 3 7 5 -10 6 -21 1 -31 10 -47 44 -21 43 -28 111
-13 134 14 22 94 20 118 -4 13 -14 33 -17 95 -16 67 2 79 0 79 -14 0 -9 -7
-25 -16 -34 -11 -12 -17 -38 -18 -75 l-1 -57 -79 2 c-61 2 -77 -1 -74 -11 3
-8 27 -15 64 -18 l59 -5 5 -55 c6 -62 23 -70 30 -13 l5 38 61 0 c34 0 72 -6
85 -12 13 -7 44 -14 69 -15 l45 -3 3 -62 c2 -46 7 -63 17 -63 10 0 15 17 17
63 l3 62 125 3 c69 1 130 -1 135 -5 7 -5 9 -41 5 -96 -6 -110 -17 -122 -102
-113 -32 3 -74 12 -93 20 -19 8 -63 17 -99 20 -35 2 -73 9 -85 15 -11 6 -30
11 -43 11 -13 0 -33 7 -44 15 -10 8 -33 15 -50 15 -18 0 -39 8 -49 20 -10 12
-25 18 -33 15 -8 -3 -35 6 -61 19 -42 20 -50 22 -66 9 -14 -10 -50 -13 -128
-12 -110 1 -161 -12 -101 -27 47 -11 124 -53 124 -68 0 -7 -18 -26 -40 -41
-22 -15 -57 -48 -77 -74 -37 -44 -38 -48 -37 -121 1 -61 8 -88 33 -144 54
-119 162 -247 251 -297 14 -8 33 -20 42 -28 19 -15 169 -79 205 -88 18 -4 23
-1 23 15 0 12 9 29 19 39 14 13 19 31 18 68 0 34 7 67 22 97 l22 46 127 -1
127 -2 6 -65 c4 -36 3 -69 -1 -74 -5 -4 -68 -8 -140 -8 -113 0 -132 -3 -137
-17 -2 -9 -8 -23 -12 -31 -9 -18 -2 -100 8 -100 4 0 11 4 16 9 6 5 62 12 125
15 63 3 137 9 164 12 39 5 53 2 76 -14 31 -24 40 -20 40 17 0 14 11 50 25 79
14 30 25 58 25 64 0 13 -76 0 -114 -19 -20 -10 -31 -12 -39 -4 -14 14 -9 124
6 133 7 4 54 8 105 8 79 0 97 3 122 21 25 19 32 20 59 9 27 -11 29 -14 16 -27
-8 -8 -15 -17 -15 -21 0 -4 -17 -18 -38 -32 -45 -30 -62 -50 -60 -70 2 -22
-21 -98 -32 -105 -13 -8 -13 -78 0 -73 5 2 71 68 146 148 116 122 180 203 240
305 14 25 28 14 72 -54 86 -136 255 -288 364 -329 68 -25 237 -45 313 -36 174
21 380 165 485 342 21 37 49 78 60 92 l20 25 23 -27 c12 -14 38 -54 57 -89 69
-124 212 -249 340 -297 114 -42 199 -56 340 -55 288 2 449 67 622 252 88 96
96 95 104 -16 4 -61 9 -73 43 -113 61 -72 109 -91 229 -91 136 0 169 10 226
71 58 62 66 83 66 175 0 80 12 125 33 125 16 0 52 -39 90 -95 66 -100 159
-205 202 -230 67 -40 93 -43 286 -35 152 5 179 9 216 28 l43 22 57 -31 c58
-31 59 -31 188 -27 138 4 140 4 204 58 75 61 73 53 78 443 4 269 2 355 -7 373
-11 19 -11 26 0 39 14 17 14 264 1 561 -7 153 -10 176 -31 209 -33 54 -20 91
45 127 89 50 133 57 160 28z m-4190 -170 c4 -6 14 -9 23 -6 25 7 103 -16 139
-41 17 -13 36 -23 42 -23 6 0 29 -17 50 -37 22 -21 50 -46 64 -55 17 -12 24
-24 20 -37 -3 -13 1 -21 15 -25 31 -10 92 -111 92 -152 0 -12 5 -24 11 -26 19
-6 42 -81 43 -138 l1 -55 -42 3 c-26 2 -43 -1 -43 -7 0 -6 -14 -11 -31 -11
-16 0 -47 -9 -67 -19 -44 -23 -79 -38 -109 -46 -24 -6 -25 -3 -37 107 -7 63
-31 115 -83 181 -13 16 -23 34 -23 42 0 7 -17 17 -37 22 l-38 9 4 69 c4 89 13
105 55 105 21 0 36 6 40 15 3 8 17 15 31 15 14 0 25 5 25 10 0 20 -31 22 -64
5 -38 -21 -82 -14 -89 13 -3 13 -7 9 -16 -15 -13 -33 -73 -73 -110 -73 -10 0
-21 -7 -25 -15 -3 -8 -17 -15 -30 -15 -14 0 -29 -7 -34 -16 -5 -9 -18 -14 -28
-12 -16 3 -20 13 -22 61 -4 83 -26 70 -32 -19 -5 -64 -7 -69 -30 -72 -14 -2
-29 -10 -33 -18 -4 -8 -23 -14 -42 -14 -19 0 -38 -6 -42 -14 -4 -8 -17 -15
-27 -17 -11 -2 -21 -10 -24 -16 -6 -19 45 -16 52 2 3 9 18 15 40 15 22 0 38 6
44 16 5 9 18 14 33 12 20 -2 25 -10 27 -40 5 -64 32 -41 32 28 0 28 5 36 25
44 14 5 25 14 25 20 0 5 15 10 34 10 21 0 36 6 40 15 3 8 18 15 32 15 15 0 35
7 45 16 28 25 39 8 39 -62 0 -62 -1 -65 -22 -63 -46 5 -116 -13 -139 -36 -43
-41 -75 -80 -82 -97 -3 -10 -17 -18 -29 -18 -13 0 -32 -7 -43 -16 -19 -14 -19
-15 3 -21 22 -5 22 -8 16 -82 -11 -118 -13 -122 -69 -138 -28 -8 -63 -21 -80
-28 -16 -8 -42 -17 -58 -21 -15 -3 -30 -10 -33 -15 -3 -5 -12 -9 -21 -9 -12 0
-14 9 -10 48 3 26 12 70 20 97 11 40 19 51 38 53 13 2 29 7 34 12 6 4 25 11
43 15 17 3 32 11 32 16 0 4 14 12 32 17 48 12 48 32 -1 32 -23 0 -41 -4 -41
-9 0 -5 -14 -11 -32 -15 -17 -3 -40 -13 -49 -22 -31 -28 -49 -11 -49 45 0 27
-4 52 -9 55 -11 7 -21 -42 -21 -100 0 -34 -4 -44 -20 -49 -11 -3 -24 -3 -30 0
-15 9 -12 59 5 91 8 16 15 41 15 56 0 15 5 30 11 33 5 4 15 18 20 32 9 25 10
25 29 8 17 -16 20 -16 26 -2 3 9 1 24 -4 33 -19 34 23 121 87 184 60 58 172
123 197 113 7 -3 25 5 40 16 15 12 38 21 53 21 14 0 33 5 41 10 20 13 127 13
135 0z m1442 -6 c14 -37 -8 -45 -114 -47 -66 -2 -107 -7 -115 -15 -9 -9 12
-12 105 -12 l117 0 0 -96 0 -97 -67 6 c-80 6 -164 -7 -176 -28 -19 -35 -26 -7
-24 110 1 85 -3 129 -11 137 -7 7 -12 8 -12 3 -1 -27 -22 -37 -89 -41 -67 -5
-71 -4 -71 15 0 13 6 21 18 21 9 0 30 7 45 15 33 17 77 22 94 12 7 -5 17 1 23
13 10 18 20 20 141 20 111 0 131 -2 136 -16z m97 -10 c36 -5 46 -11 46 -25 0
-16 -8 -19 -52 -19 -60 0 -84 11 -75 34 7 18 14 19 81 10z m750 -12 l41 3 0
-100 0 -100 -65 -6 c-36 -3 -71 -3 -77 -1 -9 3 -13 34 -13 107 0 111 4 120 49
103 14 -5 43 -8 65 -6z m230 2 c3 -9 4 -19 2 -23 -4 -6 -10 -584 -7 -628 2
-29 29 -10 51 36 26 57 37 63 91 55 l40 -7 -3 -71 c-3 -67 -4 -71 -28 -74 -14
-2 -44 -10 -68 -18 -45 -15 -158 -19 -165 -6 -3 4 -7 36 -8 72 l-4 65 30 5
c32 6 37 23 8 28 -67 11 -64 7 -61 80 3 63 5 68 33 82 l30 15 -27 3 c-29 3
-33 12 -41 82 -2 19 -6 42 -8 50 -3 9 8 18 31 26 49 16 50 34 1 34 -49 0 -53
10 -49 120 l3 75 55 6 c30 3 62 6 71 7 9 1 20 -5 23 -14z m761 8 c6 -1 43 2
83 4 65 5 72 4 72 -12 0 -10 -17 -35 -37 -56 -21 -20 -51 -53 -68 -74 -16 -20
-38 -43 -47 -52 -10 -9 -18 -20 -18 -25 0 -11 -99 -140 -114 -149 -6 -4 -43
-4 -81 0 l-70 7 -6 65 c-3 36 -4 68 -2 73 2 4 51 7 108 7 106 0 139 5 129 21
-3 5 -63 9 -133 9 l-128 0 -8 33 c-8 30 -8 31 -12 7 -3 -14 -10 -31 -15 -37
-15 -19 -58 -16 -58 2 0 22 41 75 57 75 7 0 13 6 13 14 0 7 7 19 15 26 8 7 15
20 15 29 0 42 20 44 305 33z m-1621 -54 c45 -13 86 -44 86 -65 0 -8 8 -13 18
-11 20 3 72 -46 72 -68 0 -7 11 -26 25 -42 14 -17 25 -38 25 -49 0 -10 6 -27
14 -38 7 -11 16 -50 18 -87 5 -53 3 -68 -9 -72 -8 -4 -19 -3 -25 0 -5 3 -74 6
-154 5 l-144 0 0 24 c0 61 -53 148 -95 156 -11 3 -20 11 -20 19 0 12 19 15
106 15 76 0 111 4 123 14 9 8 19 11 23 8 7 -8 22 -169 16 -179 -2 -5 -25 -9
-51 -9 l-47 -2 45 -6 c25 -4 50 -10 57 -14 7 -4 27 -1 45 7 26 11 29 15 12 15
-36 2 -41 20 -33 121 4 52 4 99 1 104 -3 5 -8 23 -12 40 l-7 31 -7 -30 c-14
-57 -14 -57 -45 -50 -16 3 -55 -1 -87 -9 -33 -8 -77 -16 -99 -18 l-40 -3 -3
93 -3 92 43 1 c24 0 52 4 63 9 28 12 42 12 89 -2z m-531 -45 c5 -3 7 -42 6
-87 -2 -44 -1 -86 3 -92 9 -13 -1 -54 -13 -54 -5 0 -16 -14 -25 -31 -37 -73 8
-151 101 -176 22 -6 54 -16 70 -21 17 -6 62 -18 100 -27 39 -9 72 -19 74 -21
9 -9 -15 -59 -27 -58 -6 1 -66 2 -132 3 l-120 1 -1 38 c-2 91 -29 107 -31 18
-1 -70 -19 -80 -142 -84 -55 -2 -108 -5 -116 -8 -37 -13 23 -24 133 -24 64 0
117 -3 118 -7 0 -5 2 -20 3 -35 1 -15 7 -33 13 -39 11 -11 17 7 25 81 3 25 4
25 128 30 69 3 128 4 133 2 9 -4 9 -164 -1 -177 -4 -5 -57 -12 -117 -13 -90
-3 -126 0 -190 18 -44 12 -92 29 -108 37 -31 16 -111 22 -145 10 -29 -11 -40
14 -21 49 11 22 11 30 -4 57 -14 25 -16 46 -12 92 11 111 1 102 117 101 103
-1 139 7 120 26 -10 10 -183 16 -212 7 -12 -3 -16 10 -18 68 -4 109 -3 111
122 110 74 -1 109 3 120 13 29 23 -1 29 -114 24 -58 -3 -115 -5 -127 -5 -30 1
-35 -20 -33 -136 0 -60 -3 -104 -9 -108 -7 -4 -5 -14 5 -30 19 -29 15 -99 -6
-103 -17 -3 -53 75 -48 105 1 10 0 23 -4 28 -18 29 -7 195 14 195 5 0 8 7 4
15 -9 24 15 78 55 120 21 22 48 52 62 66 13 14 30 29 38 32 15 7 199 -2 212
-10z m2472 7 c4 -7 13 -6 26 1 16 8 27 5 55 -12 32 -19 45 -21 125 -17 49 3
89 5 90 4 6 -8 7 -126 2 -129 -14 -8 -232 12 -253 23 -15 8 -20 21 -20 55 0
25 -4 45 -10 45 -5 0 -10 -19 -10 -43 0 -24 -5 -48 -11 -54 -8 -8 -6 -15 10
-25 18 -11 21 -22 21 -77 0 -49 -4 -67 -17 -77 -16 -12 -15 -14 15 -25 l33
-11 -3 -66 -3 -66 -35 -9 c-39 -10 -29 -20 33 -31 l37 -7 0 -59 c0 -78 -6 -90
-44 -91 -32 -1 -29 -3 16 -13 47 -10 58 -31 58 -106 0 -74 -11 -92 -40 -65
-13 12 -32 16 -62 13 l-43 -3 -2 428 c-2 360 0 427 12 427 8 0 17 -5 20 -10z
m-4619 -47 c25 -27 50 -57 56 -68 5 -11 20 -40 33 -65 13 -25 24 -58 24 -73 1
-16 6 -37 11 -47 8 -15 6 -22 -11 -34 l-21 -14 23 -4 c23 -3 24 -7 27 -90 2
-78 1 -87 -17 -93 -10 -3 -22 -12 -25 -20 -4 -13 -22 -14 -106 -9 -90 6 -100
5 -100 -10 0 -9 6 -18 13 -20 95 -30 197 -103 211 -152 6 -18 0 -24 -41 -38
-27 -9 -85 -18 -130 -19 -51 -2 -87 -8 -98 -17 -25 -21 -33 1 -34 96 0 82 0
82 31 95 25 10 27 14 14 21 -20 11 -21 37 -1 44 13 5 12 8 -1 21 -25 25 0 33
104 33 67 0 92 3 92 13 0 7 12 30 27 51 l26 39 -23 19 c-18 14 -40 18 -109 18
-50 0 -92 5 -98 11 -14 14 -5 88 12 109 7 8 15 26 17 40 3 23 8 25 58 28 103
5 107 24 7 32 -59 5 -62 6 -65 34 -2 16 1 33 7 39 6 6 11 23 11 37 0 55 18 53
76 -7z m3951 -75 c33 -12 33 -13 33 -75 0 -42 -4 -65 -12 -68 -7 -2 -55 -5
-105 -7 -85 -4 -93 -3 -93 14 0 11 4 24 10 31 5 7 28 36 50 65 43 56 59 61
117 40z m518 -40 c10 -42 -4 -368 -16 -390 -17 -32 -41 -36 -161 -27 -137 10
-168 16 -168 35 0 16 30 60 119 176 36 45 79 101 95 123 99 129 119 141 131
83z m-1108 -5 c15 -19 28 -112 17 -123 -8 -7 -129 -15 -171 -11 -17 1 -18 148
-2 153 28 9 145 -5 156 -19z m1476 -13 c51 6 74 5 79 -3 13 -21 9 -144 -4
-149 -20 -8 -149 9 -193 25 -38 13 -40 16 -43 62 -5 69 -1 74 48 65 23 -4 74
-4 113 0z m-4967 -14 c3 -8 -2 -29 -11 -47 -12 -22 -16 -45 -12 -73 4 -27 1
-47 -9 -60 -14 -19 -14 -19 -38 3 -19 17 -24 30 -20 50 6 28 -30 81 -54 81
-16 0 -15 25 1 38 7 6 35 12 62 15 28 2 56 4 63 5 7 1 15 -4 18 -12z m-130
-171 c-3 -8 -18 -17 -33 -20 -15 -4 -38 -8 -51 -11 -13 -3 -20 -9 -16 -15 4
-7 39 -10 94 -7 49 1 92 0 95 -4 6 -6 -18 -72 -31 -87 -2 -3 -16 6 -30 20 -22
20 -36 24 -89 24 -35 0 -67 -3 -71 -8 -20 -20 36 -39 154 -54 34 -4 45 -10 53
-30 5 -14 7 -29 3 -34 -6 -11 -271 -12 -277 -1 -2 4 -2 27 1 52 3 37 9 49 30
61 21 12 31 31 45 80 10 35 22 71 27 79 6 8 15 25 21 37 21 40 42 33 62 -20
10 -26 16 -54 13 -62z m2702 40 c27 -31 29 -55 4 -55 -28 0 -115 28 -137 44
-17 12 -18 16 -5 31 22 27 108 14 138 -20z m1502 23 c69 -1 140 2 158 6 50 12
51 -14 2 -76 -24 -29 -48 -53 -54 -53 -6 0 -12 16 -13 35 -2 58 -3 60 -12 60
-5 0 -8 -35 -7 -77 l1 -78 -59 -70 c-32 -38 -67 -77 -78 -86 -18 -14 -19 -19
-8 -40 7 -13 30 -43 53 -66 57 -59 48 -71 -50 -66 -43 3 -84 6 -91 9 -9 3 -12
23 -10 70 l3 67 40 12 40 12 -30 7 c-83 19 -80 15 -80 86 l0 65 102 5 c56 3
105 8 109 13 16 16 -12 22 -106 20 -74 -2 -101 1 -110 12 -10 11 -14 11 -31
-6 -23 -23 -62 -22 -67 3 -2 9 13 32 32 52 20 19 36 41 36 47 0 7 8 21 17 31
13 15 26 18 53 13 19 -3 91 -6 160 -7z m-572 -33 c9 -4 12 -24 10 -72 l-3 -68
-64 -5 c-91 -7 -95 -30 -6 -30 94 0 100 -5 100 -81 0 -61 -1 -64 -30 -78 -21
-11 -70 -16 -159 -18 -79 -1 -134 -7 -142 -14 -19 -15 -113 -6 -156 15 -17 9
-32 16 -33 16 -1 0 0 -11 2 -24 9 -43 -69 -48 -82 -5 -8 25 11 75 32 83 9 4
62 9 118 13 96 6 104 5 121 -15 12 -15 21 -18 30 -11 7 6 21 6 36 0 47 -18 51
-5 50 150 -1 80 3 146 8 149 10 6 146 2 168 -5z m-2362 -29 c39 -39 45 -83 15
-110 -27 -25 -142 -13 -177 18 -23 20 -23 22 -7 54 17 35 73 71 112 72 13 0
37 -14 57 -34z m2054 -51 c0 -63 -3 -77 -22 -95 -12 -11 -26 -20 -31 -20 -25
0 -87 24 -87 34 0 7 23 34 51 61 28 28 55 60 60 73 17 44 29 22 29 -53z m1757
55 c43 1 84 2 91 1 18 -1 17 -147 -1 -154 -17 -6 -106 10 -121 22 -6 5 -27 11
-46 13 -35 3 -35 3 -38 57 -4 67 3 88 23 71 9 -7 43 -11 92 -10z m-3289 -223
c4 -98 -4 -112 -56 -108 -22 1 -43 -2 -47 -8 -3 -6 -17 -11 -29 -11 -13 0 -35
-9 -49 -20 -14 -11 -33 -20 -42 -20 -10 0 -23 -7 -30 -17 -24 -32 -35 -5 -31
76 5 100 16 121 61 121 19 0 35 5 35 10 0 6 15 10 34 10 18 0 44 8 57 19 26
20 54 30 79 27 12 -1 16 -19 18 -79z m-1122 59 c3 -8 -2 -28 -10 -45 -9 -16
-16 -49 -16 -71 0 -23 -5 -50 -11 -61 -7 -13 -7 -25 -1 -32 5 -7 13 -27 17
-45 8 -41 25 -32 25 14 0 24 5 36 18 40 9 3 24 9 32 13 9 5 30 12 48 16 18 3
32 10 32 15 0 4 15 11 34 14 19 4 37 14 40 22 3 9 13 14 22 12 13 -2 17 -19
18 -83 2 -44 -2 -88 -8 -97 -9 -14 -6 -21 12 -33 12 -9 22 -24 22 -34 0 -9 5
-22 11 -28 6 -6 14 -26 19 -44 4 -19 11 -42 15 -51 5 -13 2 -18 -8 -18 -9 0
-23 -7 -31 -16 -23 -22 -36 -9 -36 36 0 21 -3 46 -6 55 -10 26 -24 -3 -24 -52
0 -49 -8 -73 -24 -73 -6 0 -28 -9 -49 -20 -20 -11 -44 -20 -52 -20 -8 0 -15
-7 -15 -15 0 -10 10 -15 34 -15 18 0 39 7 46 15 16 19 49 19 56 0 3 -8 2 -41
-4 -72 -5 -32 -9 -59 -8 -60 1 -2 12 6 24 17 18 17 22 32 22 83 1 69 19 101
62 112 20 5 34 -3 76 -44 35 -34 61 -51 77 -51 14 0 25 -4 25 -10 0 -20 -41
-50 -69 -50 -17 0 -32 -4 -36 -9 -3 -5 -19 -12 -35 -16 -17 -4 -30 -11 -30
-16 0 -5 -12 -12 -27 -15 -16 -4 -33 -14 -40 -23 -10 -13 -15 -14 -31 -4 -18
10 -21 9 -26 -13 -4 -15 -14 -24 -26 -24 -11 0 -20 4 -20 8 0 5 -20 32 -45 61
-27 31 -45 63 -45 77 0 14 -6 27 -14 30 -16 6 -62 98 -69 139 -3 19 0 36 10
47 13 15 13 18 -6 28 -12 6 -21 18 -21 28 0 9 -9 31 -20 47 -28 42 -27 99 3
112 l22 11 -28 11 c-28 11 -28 11 -23 85 5 86 25 126 62 126 14 0 27 -6 30
-14z m2129 -10 c17 -18 37 -26 81 -31 33 -3 71 -13 86 -21 14 -7 33 -14 40
-14 30 0 50 -36 42 -76 -11 -65 -9 -64 -144 -67 -69 -2 -132 -6 -140 -8 -12
-3 -16 15 -20 111 -3 63 -4 118 -2 123 7 15 35 6 57 -17z m2308 -6 c29 1 57 1
64 1 9 -1 12 -49 12 -180 0 -177 0 -180 -22 -187 l-22 -7 23 -10 c20 -9 22
-16 22 -98 0 -88 0 -89 -27 -96 l-28 -6 28 -10 28 -9 -2 -116 c0 -65 4 -129
10 -144 7 -19 7 -29 0 -34 -14 -8 -339 -7 -347 1 -4 3 -5 36 -4 73 2 37 4 164
5 282 l2 215 40 -3 c22 -2 47 -10 55 -17 8 -7 29 -15 45 -17 l30 -3 5 -80 c6
-84 -3 -105 -31 -79 -19 17 -114 16 -114 -1 0 -5 22 -12 48 -16 27 -3 51 -10
55 -16 4 -6 21 -13 37 -15 30 -3 30 -4 33 -68 1 -36 8 -69 15 -75 7 -6 12 -35
13 -68 0 -63 17 -96 28 -53 3 13 16 28 29 32 22 7 22 7 2 16 -43 19 -77 200
-40 214 23 9 18 22 -15 39 -31 16 -31 16 -28 93 l3 77 33 3 c38 4 39 25 1 30
-71 8 -70 7 -67 80 3 66 3 67 33 70 17 1 41 5 54 8 37 8 7 24 -46 24 -56 0
-73 24 -73 106 0 33 3 64 7 67 3 4 17 0 30 -9 16 -10 44 -15 76 -14z m-4563
-24 c0 -8 -4 -18 -10 -21 -14 -9 -13 -71 2 -94 9 -15 9 -25 0 -46 -11 -24 -16
-26 -65 -23 l-52 3 -7 80 c-8 88 -5 95 49 95 17 0 35 5 38 10 9 15 45 12 45
-4z m764 -7 c56 1 110 -1 119 -5 21 -8 12 -24 -12 -24 -10 0 -24 -7 -31 -15
-7 -8 -26 -15 -42 -15 -16 0 -31 -6 -34 -15 -4 -9 -19 -15 -39 -15 -31 0 -34
3 -38 33 -3 28 -4 27 -5 -10 -2 -32 -7 -43 -22 -48 -11 -3 -20 -13 -20 -21 0
-19 34 -18 50 1 7 8 23 15 37 15 13 0 26 7 29 15 4 8 18 15 34 15 15 0 33 7
40 15 9 11 22 14 42 9 24 -5 30 -2 35 15 11 42 28 14 29 -47 1 -34 4 -68 7
-76 8 -20 -13 -33 -24 -15 -6 11 -39 13 -154 10 -106 -2 -150 0 -161 10 -11 9
-18 9 -26 1 -13 -13 -136 -16 -156 -4 -17 12 5 120 31 149 17 19 32 23 106 25
47 2 90 1 94 -1 5 -2 55 -3 111 -2z m715 -22 c62 -16 66 -37 8 -37 -25 0 -52
-3 -61 -6 -30 -12 -4 -24 50 -24 48 0 56 -3 66 -25 8 -19 8 -28 -2 -40 -24
-28 -270 -14 -270 17 0 10 11 14 63 23 48 8 39 25 -14 25 -35 0 -39 3 -39 25
0 49 96 69 199 42z m-1659 -27 c0 -30 0 -30 -25 -14 l-26 17 23 12 c13 7 24
13 26 14 1 1 2 -13 2 -29z m4413 -14 c21 -10 21 -16 3 -42 -14 -18 -28 -19
-263 -19 -242 0 -323 6 -323 25 0 16 42 33 100 41 68 9 459 5 483 -5z m-789
-32 c12 -5 16 -21 16 -64 0 -93 -9 -107 -72 -112 -68 -5 -72 -4 -94 38 -18 34
-43 46 -45 22 -1 -7 0 -73 1 -146 l1 -133 -28 3 -28 3 0 92 c-1 102 -8 119
-47 104 -14 -5 -51 -9 -82 -9 -37 0 -63 -5 -74 -14 -23 -21 -54 -29 -70 -19
-9 5 -12 31 -10 92 l3 84 85 3 c46 2 90 8 97 14 20 17 28 2 33 -65 4 -46 9
-62 20 -62 12 0 15 14 15 70 l0 70 105 5 c58 3 114 10 125 17 23 14 28 15 49
7z m-2181 -102 c8 -72 -4 -115 -38 -131 -29 -14 -29 -14 -8 -28 20 -13 20 -17
7 -48 -8 -19 -14 -47 -14 -63 0 -16 -7 -35 -15 -42 -8 -7 -15 -20 -15 -29 -1
-22 -44 -73 -61 -71 -31 5 -44 -1 -21 -10 12 -5 22 -16 22 -25 0 -22 -140
-156 -191 -183 -24 -12 -51 -27 -59 -31 -47 -27 -122 -41 -212 -41 -53 0 -99
4 -102 9 -3 4 -25 11 -48 15 -76 12 -178 74 -178 108 0 12 72 48 94 48 15 0
95 41 102 51 3 5 13 9 24 9 10 0 20 7 24 15 3 8 12 15 21 15 24 0 22 -205 -2
-214 -12 -5 -13 -10 -5 -18 8 -8 20 -5 47 13 29 20 33 26 20 35 -12 9 -15 34
-15 111 0 96 1 101 23 106 40 10 97 33 109 45 7 7 18 12 25 12 7 0 17 9 23 20
6 11 20 20 32 20 17 0 18 2 8 15 -13 16 -13 18 36 118 8 16 14 48 14 72 0 68
33 68 43 0 4 -29 4 -29 6 5 2 50 31 80 75 80 19 0 38 5 41 10 3 6 17 10 29 10
13 0 34 9 47 20 15 12 39 19 65 20 l41 0 6 -48z m2876 23 c17 -8 32 -26 36
-42 10 -41 8 -374 -3 -385 -19 -19 -60 17 -165 146 -114 139 -163 209 -169
240 -4 25 24 33 112 36 36 0 83 5 105 9 22 5 44 9 48 10 4 0 21 -6 36 -14z
m-1488 -27 c16 -18 29 -42 29 -53 0 -11 6 -29 14 -40 16 -25 16 -210 -1 -240
-6 -11 -16 -38 -22 -60 -13 -51 -80 -142 -123 -168 -18 -11 -34 -23 -36 -28
-5 -12 -150 -79 -173 -79 -11 0 -36 -7 -56 -15 -27 -11 -78 -15 -219 -15 -164
0 -184 2 -193 18 -9 18 1 160 13 181 4 6 36 11 81 11 73 0 105 12 62 24 -12 3
-52 6 -88 6 -64 0 -67 1 -73 26 -8 32 -23 21 -28 -21 l-3 -30 -72 -1 c-55 -1
-78 -5 -93 -19 -29 -26 -102 -32 -124 -10 -15 16 -17 29 -11 104 4 47 9 89 12
94 2 4 38 7 80 7 64 0 80 3 99 21 33 31 65 19 99 -36 16 -25 37 -45 46 -45 9
0 22 -6 28 -14 6 -8 24 -16 39 -19 15 -4 56 -13 92 -22 36 -9 79 -17 97 -18
18 -2 35 -6 39 -10 4 -4 7 -47 6 -95 -3 -98 10 -135 28 -87 8 19 10 56 6 101
-6 62 -4 73 10 78 16 6 15 8 -4 22 -25 17 -21 34 8 34 23 0 85 41 110 73 10
13 20 43 22 68 3 43 4 44 36 41 19 -2 44 4 58 13 44 29 54 15 54 -75 l0 -80
-37 -16 c-21 -9 -56 -18 -78 -20 -88 -10 -108 -15 -98 -25 5 -5 42 -10 81 -11
56 -1 76 3 91 16 27 25 41 12 41 -37 0 -53 16 -83 24 -46 3 13 7 40 8 59 3 33
5 35 47 40 62 7 65 28 4 32 l-48 3 0 85 0 85 63 5 c34 3 62 10 62 15 0 6 -28
12 -62 15 l-63 5 0 85 0 85 30 6 c51 11 55 10 86 -23z m-153 -85 c-3 -64 -5
-68 -28 -71 -13 -2 -33 -10 -44 -18 -33 -23 -88 -17 -115 12 -14 14 -46 36
-73 50 -50 25 -55 37 -37 78 11 24 13 24 135 23 87 -2 127 2 136 11 20 20 29
-10 26 -85z m-2548 62 c0 -8 -10 -24 -22 -35 -19 -17 -23 -33 -25 -88 -1 -44
-6 -70 -16 -77 -11 -8 -12 -13 -2 -22 15 -14 9 -96 -11 -135 -8 -15 -14 -33
-14 -40 -1 -7 -12 -26 -25 -43 -21 -26 -31 -29 -82 -31 -32 -1 -79 -7 -104
-13 -25 -7 -75 -11 -110 -9 l-64 3 -3 66 c-3 64 -2 67 34 103 36 36 37 36 115
34 63 -1 83 3 99 17 36 33 50 13 50 -70 0 -41 4 -75 9 -75 14 0 21 28 21 90 0
37 5 62 14 69 10 9 14 40 13 124 l0 112 37 3 c21 2 40 10 43 18 7 18 43 18 43
-1z m2224 -21 c8 -20 -12 -46 -28 -37 -6 4 -31 10 -55 13 -46 5 -66 25 -34 33
10 3 39 5 64 6 35 1 48 -3 53 -15z m-2376 -97 l3 -96 -48 -7 c-26 -4 -58 -13
-70 -21 -13 -9 -41 -13 -74 -11 -51 3 -54 4 -60 34 -3 18 -19 52 -35 77 -23
36 -33 45 -50 40 -25 -5 -41 14 -25 30 8 8 16 9 29 1 11 -7 26 -8 40 -3 13 5
73 13 135 17 86 7 114 13 122 26 20 33 30 7 33 -87z m968 61 c36 -36 -16 -139
-85 -168 -40 -16 -84 8 -122 68 -57 90 -26 125 108 120 61 -2 87 -7 99 -20z
m2944 12 c26 -14 110 -125 110 -145 0 -13 -8 -15 -42 -11 -155 19 -220 14
-226 -17 -3 -17 4 -18 110 -12 62 4 122 7 133 7 58 4 72 -3 104 -48 18 -25 48
-62 67 -82 19 -20 34 -41 34 -45 0 -25 -113 -13 -117 13 -8 61 -15 90 -23 90
-6 0 -10 -16 -10 -36 0 -19 -4 -44 -10 -54 -9 -17 -13 -17 -37 -5 -24 12 -40
11 -118 -6 -102 -23 -130 -20 -139 16 -3 13 -24 43 -46 66 -22 23 -40 51 -40
61 0 10 -4 18 -9 18 -14 0 -113 141 -108 154 3 7 27 11 62 10 75 -2 87 -16 84
-105 -1 -36 3 -74 8 -84 10 -18 11 -17 21 2 9 17 5 97 -10 188 -3 18 4 21 77
26 44 3 86 6 93 7 7 1 22 -3 32 -8z m-4449 -32 c22 -17 44 -22 84 -22 43 0 55
-4 55 -16 0 -19 -21 -76 -42 -115 -16 -30 -17 -30 -96 -29 -44 1 -85 5 -91 8
-15 10 -14 58 3 103 8 21 17 50 20 66 8 33 27 34 67 5z m3894 -103 l0 -70 -35
-5 c-20 -4 -41 -9 -47 -13 -16 -10 -135 -25 -150 -20 -19 8 -17 137 2 153 8 7
21 10 29 7 8 -3 33 1 57 8 24 8 67 13 94 12 l50 -2 0 -70z m-4195 40 c7 -8 10
-32 8 -56 -3 -37 1 -46 40 -89 64 -71 115 -104 150 -97 16 3 33 2 39 -4 5 -5
40 -12 76 -16 53 -5 76 -2 107 12 56 25 69 17 62 -42 -3 -26 -10 -51 -16 -55
-19 -13 -264 -9 -272 4 -4 6 -10 24 -13 40 -8 38 -25 41 -29 5 l-3 -28 -77 7
c-42 4 -82 10 -87 15 -6 4 -31 9 -55 11 l-45 3 -3 47 c-2 26 4 62 12 83 9 21
16 46 16 56 0 12 7 19 19 19 11 0 23 5 26 10 3 6 -1 10 -9 10 -9 0 -25 9 -36
20 -11 11 -20 15 -20 10 0 -6 -14 -17 -30 -24 l-31 -12 26 -12 c28 -13 32 -33
10 -52 -9 -7 -15 -35 -17 -73 -3 -61 -3 -62 -30 -59 -35 4 -56 -7 -37 -19 8
-5 24 -9 35 -9 12 0 24 -7 28 -15 4 -10 20 -15 53 -15 28 0 58 -7 71 -16 13
-9 54 -18 98 -21 65 -5 75 -9 80 -27 3 -12 -2 -35 -10 -51 -9 -17 -16 -42 -16
-57 0 -16 -3 -28 -7 -28 -15 1 -98 26 -123 37 -14 6 -32 14 -40 17 -40 16 -96
56 -105 75 -5 11 -17 21 -27 21 -23 0 -88 79 -88 107 0 13 -4 23 -9 23 -13 0
-46 77 -58 135 -6 28 -13 57 -16 65 -4 8 -3 22 3 30 7 12 39 15 161 17 83 1
154 5 157 8 9 9 19 6 32 -10z m2808 0 c9 -3 12 -19 10 -47 l-3 -42 -60 -13
c-33 -8 -85 -12 -115 -11 -48 3 -55 6 -58 26 -5 32 -15 27 -28 -13 -7 -23 -8
-53 -1 -94 15 -95 -7 -122 -43 -51 -11 21 -20 52 -20 69 0 16 -6 31 -14 34
-15 6 -28 125 -16 142 8 10 320 10 348 0z m262 -4 c128 -37 140 -42 150 -61
18 -33 11 -49 -26 -65 -47 -19 -85 -19 -152 2 -58 18 -92 56 -106 116 -6 26
-5 27 31 27 21 0 67 -9 103 -19z m3087 -93 c20 -19 23 -31 23 -99 0 -58 4 -82
16 -94 15 -15 15 -17 -2 -30 -18 -13 -18 -14 -1 -32 11 -13 17 -36 17 -70 0
-33 5 -55 15 -63 10 -8 15 -30 15 -61 0 -49 0 -49 -34 -49 -18 0 -39 6 -46 14
-6 8 -24 16 -38 18 l-27 3 0 115 0 115 38 3 c20 2 37 7 37 12 0 4 -17 12 -37
17 l-38 9 -3 94 c-1 51 -1 99 2 107 8 20 37 16 63 -9z m-5799 -62 c2 -9 -9
-29 -24 -43 -23 -21 -31 -23 -46 -14 -10 6 -29 11 -43 11 -26 0 -53 36 -38 51
7 7 110 17 138 14 6 -1 12 -9 13 -19z m3936 -157 c3 -100 4 -184 2 -187 -6 -6
-347 -5 -352 1 -3 2 -2 23 2 46 5 34 11 42 33 47 14 3 36 10 49 15 13 5 46 9
75 9 30 1 60 7 71 15 11 8 28 15 38 15 18 0 21 -8 19 -45 -1 -12 3 -32 8 -45
8 -21 10 -16 10 32 1 31 5 59 10 62 5 4 5 19 -2 36 -10 28 -12 28 -19 10 -5
-14 -16 -20 -36 -20 -15 0 -33 -5 -39 -11 -6 -6 -36 -13 -66 -14 -37 -2 -65
-10 -84 -25 -52 -38 -63 -22 -63 90 0 68 4 101 13 107 6 4 44 6 84 4 54 -2 77
1 97 14 35 23 54 13 58 -31 5 -55 28 -57 28 -1 0 50 5 57 35 57 21 0 22 -4 29
-181z m604 8 c22 -10 23 -16 20 -87 -2 -68 -1 -75 16 -75 18 0 19 7 17 70 -1
38 -7 75 -12 82 -13 15 -4 19 62 27 l57 7 38 -48 c22 -26 46 -55 54 -64 8 -9
30 -32 48 -52 55 -60 37 -81 -50 -57 -24 7 -92 8 -200 2 -171 -10 -188 -8
-188 14 0 8 -10 24 -21 35 -32 32 -110 149 -105 157 7 12 239 2 264 -11z
m-2016 -122 c4 -46 3 -72 -4 -76 -11 -7 -42 0 -88 19 -14 6 -32 13 -40 16 -8
4 -28 15 -45 26 -16 11 -38 23 -47 26 -10 4 -18 15 -18 25 0 15 8 19 33 20 17
0 41 4 52 9 11 5 49 8 85 7 l65 -2 7 -70z"/>
<path d="M1530 2770 c0 -5 7 -10 15 -10 8 0 15 5 15 10 0 6 -7 10 -15 10 -8 0
-15 -4 -15 -10z"/>
<path d="M2851 2039 c-1 -29 -41 -69 -67 -69 -14 0 -32 -7 -40 -15 -9 -8 -24
-15 -35 -15 -10 0 -19 -7 -19 -15 0 -19 38 -20 76 -1 67 33 69 31 69 -69 0
-85 -1 -89 -23 -95 -33 -7 -32 -24 1 -28 23 -3 27 -8 27 -37 0 -19 4 -37 10
-40 10 -6 18 18 22 70 2 23 9 31 27 33 13 2 31 10 38 18 8 8 28 14 44 14 19 0
29 5 29 15 0 21 -68 20 -91 -1 -10 -9 -25 -14 -34 -11 -22 9 -22 165 0 173 19
8 19 30 0 38 -9 3 -20 16 -25 28 -6 15 -9 18 -9 7z"/>
<path d="M5867 2165 c-4 -8 -2 -28 4 -43 9 -24 11 -25 20 -9 13 22 8 59 -7 64
-6 2 -14 -3 -17 -12z"/>
<path d="M5620 2160 c20 -13 187 -13 195 0 4 6 -32 10 -102 10 -73 0 -103 -3
-93 -10z"/>
<path d="M2146 1271 c-3 -4 -19 -11 -36 -15 -17 -3 -38 -13 -46 -21 -9 -8 -24
-15 -35 -15 -10 0 -19 -7 -19 -15 0 -17 65 -22 75 -6 3 5 18 12 34 16 16 3 35
13 42 21 6 8 20 14 30 14 11 0 19 7 19 15 0 16 -55 22 -64 6z"/>
<path d="M6207 854 c-11 -12 3 -24 28 -24 13 0 30 -7 39 -15 9 -9 34 -15 65
-15 39 0 51 4 51 15 0 10 -10 15 -32 15 -18 0 -46 7 -62 15 -29 15 -78 20 -89
9z"/>
<path d="M2956 1175 c-10 -8 -23 -12 -28 -9 -4 3 -19 -3 -33 -14 -14 -11 -40
-23 -59 -26 -54 -10 -60 -24 -57 -146 l2 -109 -48 -21 c-96 -43 -133 -62 -139
-71 -3 -5 -14 -9 -25 -9 -10 0 -19 -7 -19 -15 0 -17 31 -20 58 -6 9 6 40 20
67 32 28 13 58 30 67 37 14 12 21 12 33 2 8 -7 15 -20 16 -29 1 -9 7 2 13 24
8 26 20 41 32 44 10 1 26 9 34 16 8 7 26 15 39 17 14 1 26 9 29 16 6 19 -64
16 -72 -4 -3 -9 -15 -14 -28 -12 -22 3 -23 8 -26 87 -3 95 10 121 60 121 15 0
28 5 28 10 0 6 9 10 21 10 11 0 37 9 57 20 20 10 45 21 55 24 9 3 17 10 17 16
0 15 -72 12 -94 -5z"/>
<path d="M575 1140 c3 -5 19 -10 35 -10 16 0 32 5 35 10 4 6 -10 10 -35 10
-25 0 -39 -4 -35 -10z"/>
<path d="M5630 730 c-11 -7 -1 -10 35 -10 36 0 46 3 35 10 -8 5 -24 10 -35 10
-11 0 -27 -5 -35 -10z"/>
<path d="M801 2881 c-7 -33 -10 -64 -7 -69 5 -9 72 -7 124 4 39 8 13 24 -39
24 -45 0 -49 2 -49 23 0 25 33 47 70 47 11 0 20 7 20 15 0 11 -13 15 -53 15
l-53 0 -13 -59z"/>
<path d="M2377 2920 c-3 -13 -14 -20 -29 -20 -12 0 -32 -7 -42 -15 -11 -8 -28
-15 -38 -15 -10 0 -21 -7 -24 -15 -4 -8 -17 -15 -30 -15 -15 0 -24 -6 -24 -15
0 -19 39 -19 64 0 11 8 26 15 35 15 8 0 22 6 30 14 9 8 27 16 41 18 21 2 26
-2 28 -25 4 -37 26 -29 30 11 2 17 10 36 18 42 25 22 16 40 -20 40 -25 0 -35
-5 -39 -20z"/>
<path d="M2455 2800 c-8 -12 20 -24 35 -15 5 3 10 10 10 16 0 12 -37 12 -45
-1z"/>
<path d="M6962 2660 c0 -19 2 -27 5 -17 2 9 2 25 0 35 -3 9 -5 1 -5 -18z"/>
<path d="M6985 2587 c-9 -22 3 -87 15 -87 6 0 10 9 10 20 0 17 7 20 50 20 38
0 50 4 50 15 0 11 -12 15 -46 15 -33 0 -51 5 -60 18 -12 16 -13 16 -19 -1z"/>
<path d="M7020 1884 c-14 -3 -36 -7 -50 -10 -38 -8 -7 -20 73 -29 63 -6 67 -5
67 14 0 12 -6 21 -12 21 -7 0 -22 2 -33 4 -11 2 -31 2 -45 0z"/>
<path d="M0 1541 c0 -18 6 -21 40 -21 59 0 55 21 -7 35 -29 6 -33 4 -33 -14z"/>
<path d="M6955 1349 c-3 -14 -2 -41 3 -60 l9 -34 8 38 c4 22 3 48 -3 60 -10
22 -10 22 -17 -4z"/>
<path d="M7010 1295 c0 -11 12 -15 50 -15 38 0 50 4 50 15 0 11 -12 15 -50 15
-38 0 -50 -4 -50 -15z"/>
<path d="M87 1233 c-11 -10 -8 -61 3 -68 6 -4 10 10 10 34 0 42 -2 46 -13 34z"/>
<path d="M0 1115 c0 -8 7 -15 15 -15 33 0 51 -102 20 -114 -10 -3 -15 -19 -15
-44 0 -21 -5 -43 -11 -49 -18 -18 -2 -45 23 -41 22 3 23 7 19 66 -2 49 1 67
14 82 10 11 14 26 11 38 -4 11 0 24 9 32 20 17 2 40 -31 40 -13 0 -24 5 -24
10 0 6 -7 10 -15 10 -8 0 -15 -7 -15 -15z"/>
<path d="M0 770 c0 -38 4 -59 10 -55 13 8 13 102 0 110 -6 4 -10 -17 -10 -55z"/>
<path d="M0 674 c1 -32 25 -54 59 -54 36 0 39 22 5 28 -10 2 -29 13 -41 25
-22 20 -23 20 -23 1z"/>
<path d="M0 431 c0 -31 23 -51 59 -51 38 0 40 17 4 31 -16 6 -36 18 -45 26
-17 15 -18 14 -18 -6z"/>
<path d="M752 133 c-20 -8 -3 -23 28 -23 36 0 47 16 17 24 -25 6 -27 6 -45 -1z"/>
<path d="M1697 133 c-26 -7 -10 -23 23 -23 33 0 48 15 24 24 -17 6 -19 6 -47
-1z"/>
<path d="M2712 108 c-13 -15 -34 -28 -46 -28 -12 0 -27 -5 -33 -11 -12 -12
-44 -31 -83 -50 -22 -11 -23 -13 -6 -17 23 -5 96 17 96 30 0 4 7 8 15 8 8 0
24 9 34 19 24 24 31 18 31 -26 0 -23 5 -33 15 -33 11 0 15 11 15 38 0 55 10
82 29 79 9 -1 17 2 19 7 1 5 -12 10 -30 11 -25 1 -38 -5 -56 -27z"/>
<path d="M536 119 c-2 -8 -7 -38 -10 -66 -5 -48 -3 -53 14 -53 21 0 23 8 20
75 -2 42 -16 69 -24 44z"/>
<path d="M855 106 c-13 -9 -15 -15 -7 -20 7 -4 12 -25 12 -47 0 -53 27 -55 32
-1 2 30 7 38 26 40 13 2 31 -3 41 -12 12 -11 44 -16 121 -18 100 -3 105 -4
108 -26 4 -29 30 -29 34 0 3 23 5 23 148 23 143 0 145 0 148 -22 6 -41 29 -26
37 23 5 36 3 50 -9 63 -15 15 -17 14 -22 -7 -6 -22 -9 -22 -154 -22 -143 0
-147 1 -157 23 l-10 22 -7 -22 c-7 -22 -12 -23 -107 -23 -64 0 -110 5 -127 14
-43 21 -88 26 -107 12z"/>
<path d="M6207 114 c-4 -4 -7 -31 -7 -61 0 -45 3 -53 19 -53 16 0 17 6 13 53
-4 53 -13 73 -25 61z"/>
<path d="M1582 103 c-24 -10 0 -23 44 -23 32 0 44 4 44 15 0 11 -10 15 -37 14
-21 0 -44 -3 -51 -6z"/>
<path d="M2238 96 c-8 -8 -23 -15 -33 -17 -10 -2 -20 -10 -23 -16 -6 -19 37
-16 44 2 4 8 15 15 25 15 10 0 19 7 19 15 0 19 -14 19 -32 1z"/>
<path d="M4066 88 c-3 -13 -6 -38 -6 -55 0 -27 4 -33 21 -33 18 0 20 5 17 52
-3 54 -21 75 -32 36z"/>
<path d="M6370 96 c0 -8 11 -17 25 -20 14 -4 25 -11 25 -16 0 -6 8 -10 19 -10
10 0 24 -7 31 -15 7 -8 21 -15 31 -15 10 0 21 -4 24 -10 3 -5 23 -10 43 -10
37 0 37 1 16 18 -12 9 -24 30 -28 45 l-7 28 -17 -21 c-17 -21 -52 -20 -52 1 0
5 -8 9 -18 9 -10 0 -27 7 -38 15 -24 18 -54 19 -54 1z"/>
<path d="M5830 77 c0 -9 9 -21 20 -27 11 -6 20 -20 20 -30 0 -11 7 -20 15 -20
8 0 15 9 15 20 0 28 27 36 49 16 10 -9 35 -16 59 -16 22 0 44 -5 47 -10 3 -6
26 -10 51 -10 24 0 44 5 44 10 0 6 -15 10 -34 10 -18 0 -39 7 -46 15 -7 9 -29
15 -53 15 -22 0 -48 7 -57 15 -9 8 -42 17 -73 21 -48 6 -57 4 -57 -9z"/>
<path d="M6890 71 c0 -6 11 -16 24 -23 13 -7 38 -21 55 -31 20 -11 46 -17 69
-15 l37 4 -32 13 c-18 7 -33 17 -33 21 0 5 -13 11 -30 15 -16 4 -30 11 -30 16
0 5 -13 9 -30 9 -16 0 -30 -4 -30 -9z"/>
<path d="M177 43 c-13 -12 -7 -43 8 -43 9 0 15 9 15 25 0 24 -10 32 -23 18z"/>
</g>
</svg>
